Atomic Age.ufo
<glyph name="exclam" format="1">
  <advance width="775"/>
  <unicode hex="0021"/>
  <outline>
    <contour>
      <point x="325" y="505" type="line" name="hr01"/>
      <point x="440" y="505" type="line"/>
      <point x="541" y="1279" type="line" smooth="yes" name="hr02"/>
      <point x="544" y="1303"/>
      <point x="546" y="1330"/>
      <point x="546" y="1356" type="curve" smooth="yes"/>
      <point x="546" y="1459"/>
      <point x="474" y="1543"/>
      <point x="382" y="1543" type="curve" smooth="yes"/>
      <point x="292" y="1543"/>
      <point x="222" y="1458"/>
      <point x="222" y="1354" type="curve" smooth="yes"/>
      <point x="222" y="1329"/>
      <point x="226" y="1300"/>
      <point x="228" y="1282" type="curve" smooth="yes"/>
    </contour>
    <contour>
      <point x="219" y="157" type="curve" smooth="yes" name="hr03"/>
      <point x="219" y="64"/>
      <point x="294" y="-11"/>
      <point x="387" y="-11" type="curve" smooth="yes"/>
      <point x="479" y="-11"/>
      <point x="556" y="64"/>
      <point x="556" y="157" type="curve" smooth="yes"/>
      <point x="556" y="250"/>
      <point x="480" y="326"/>
      <point x="387" y="326" type="curve" smooth="yes"/>
      <point x="294" y="326"/>
      <point x="219" y="250"/>
    </contour>
  </outline>
</glyph>
<glyph name="percent" format="1">
  <advance width="1858"/>
  <unicode hex="0025"/>
  <outline>
    <contour>
      <point x="478" y="-59" type="line" name="hr01"/>
      <point x="656" y="-59" type="line"/>
      <point x="1462" y="1311" type="line"/>
      <point x="1285" y="1311" type="line"/>
    </contour>
    <contour>
      <point x="329" y="615" type="curve" smooth="yes"/>
      <point x="691" y="614" type="line" smooth="yes"/>
      <point x="773" y="614"/>
      <point x="839" y="684"/>
      <point x="839" y="773" type="curve" smooth="yes"/>
      <point x="839" y="1078" type="line" smooth="yes"/>
      <point x="839" y="1167"/>
      <point x="772" y="1237"/>
      <point x="690" y="1237" type="curve" smooth="yes"/>
      <point x="328" y="1238" type="line" smooth="yes"/>
      <point x="246" y="1238"/>
      <point x="180" y="1168"/>
      <point x="180" y="1079" type="curve" smooth="yes"/>
      <point x="180" y="774" type="line" smooth="yes"/>
      <point x="180" y="685"/>
      <point x="247" y="615"/>
    </contour>
    <contour>
      <point x="392" y="723" type="line"/>
      <point x="392" y="1129" type="line"/>
      <point x="628" y="1129" type="line"/>
      <point x="628" y="723" type="line"/>
    </contour>
    <contour>
      <point x="1096" y="159" type="line" smooth="yes"/>
      <point x="1096" y="70"/>
      <point x="1163" y="0"/>
      <point x="1245" y="0" type="curve" smooth="yes"/>
      <point x="1607" y="-1" type="line" smooth="yes"/>
      <point x="1689" y="-1"/>
      <point x="1755" y="69"/>
      <point x="1755" y="158" type="curve" smooth="yes"/>
      <point x="1755" y="463" type="line" smooth="yes"/>
      <point x="1755" y="552"/>
      <point x="1688" y="622"/>
      <point x="1606" y="622" type="curve" smooth="yes" name="hr02"/>
      <point x="1244" y="623" type="line" smooth="yes"/>
      <point x="1162" y="623"/>
      <point x="1096" y="553"/>
      <point x="1096" y="464" type="curve" smooth="yes"/>
    </contour>
    <contour>
      <point x="1308" y="108" type="line"/>
      <point x="1308" y="514" type="line"/>
      <point x="1544" y="514" type="line"/>
      <point x="1544" y="108" type="line"/>
    </contour>
  </outline>
</glyph>
<glyph name="ampersand" format="1">
  <advance width="1348"/>
  <unicode hex="0026"/>
  <outline>
    <contour>
      <point x="119" y="254" type="line" smooth="yes" name="hr01"/>
      <point x="119" y="114"/>
      <point x="207" y="0"/>
      <point x="310" y="0" type="curve" smooth="yes"/>
      <point x="720" y="0" type="line"/>
      <point x="850" y="243" type="line"/>
      <point x="1027" y="0" type="line"/>
      <point x="1284" y="0" type="line"/>
      <point x="954" y="459" type="line"/>
      <point x="1244" y="944" type="line"/>
      <point x="1031" y="944" type="line"/>
      <point x="841" y="611" type="line"/>
      <point x="519" y="1052" type="line" name="hr02"/>
      <point x="519" y="1345" type="line"/>
      <point x="768" y="1345" type="line"/>
      <point x="768" y="1155" type="line"/>
      <point x="1006" y="1155" type="line"/>
      <point x="1006" y="1260" type="line" smooth="yes"/>
      <point x="1006" y="1403"/>
      <point x="923" y="1516"/>
      <point x="817" y="1516" type="curve" smooth="yes"/>
      <point x="474" y="1516" type="line" smooth="yes"/>
      <point x="368" y="1516"/>
      <point x="282" y="1402"/>
      <point x="282" y="1259" type="curve" smooth="yes"/>
      <point x="282" y="1139" type="line" smooth="yes"/>
      <point x="282" y="1049"/>
      <point x="302" y="1008"/>
      <point x="338" y="957" type="curve" smooth="yes"/>
      <point x="363" y="922" type="line"/>
      <point x="178" y="894"/>
      <point x="119" y="727"/>
      <point x="119" y="633" type="curve" smooth="yes" name="hr03"/>
    </contour>
    <contour>
      <point x="370" y="171" type="line"/>
      <point x="370" y="766" type="line"/>
      <point x="370" y="919" type="line"/>
      <point x="733" y="406" type="line"/>
      <point x="573" y="171" type="line"/>
    </contour>
  </outline>
</glyph>
<glyph name="quotesingle" format="1">
  <advance width="370"/>
  <unicode hex="0027"/>
  <outline>
    <contour>
      <point x="134" y="822" type="line" name="hr00"/>
      <point x="234" y="822" type="line"/>
      <point x="322" y="1319" type="line" smooth="yes"/>
      <point x="325" y="1335"/>
      <point x="326" y="1353"/>
      <point x="326" y="1370" type="curve" smooth="yes"/>
      <point x="326" y="1449"/>
      <point x="263" y="1515"/>
      <point x="183" y="1515" type="curve" smooth="yes"/>
      <point x="105" y="1515"/>
      <point x="44" y="1450"/>
      <point x="44" y="1369" type="curve" smooth="yes"/>
      <point x="44" y="1352"/>
      <point x="47" y="1333"/>
      <point x="49" y="1321" type="curve" smooth="yes"/>
    </contour>
  </outline>
</glyph>
<glyph name="parenleft" format="1">
  <advance width="1076"/>
  <unicode hex="0028"/>
  <outline>
    <contour>
      <point x="317" y="429" type="line" smooth="yes" name="hr00"/>
      <point x="317" y="-25"/>
      <point x="566" y="-348"/>
      <point x="876" y="-388" type="curve"/>
      <point x="876" y="-242" type="line"/>
      <point x="691" y="-205"/>
      <point x="546" y="15"/>
      <point x="546" y="319" type="curve" smooth="yes"/>
      <point x="546" y="1069" type="line" smooth="yes"/>
      <point x="546" y="1373"/>
      <point x="691" y="1592"/>
      <point x="876" y="1629" type="curve"/>
      <point x="876" y="1777" type="line"/>
      <point x="555" y="1754"/>
      <point x="317" y="1423"/>
      <point x="317" y="960" type="curve" smooth="yes"/>
    </contour>
  </outline>
</glyph>
<glyph name="asterisk" format="1">
  <advance width="1285"/>
  <unicode hex="002A"/>
  <outline>
    <contour>
      <point x="420" y="592" type="curve" name="hr01"/>
      <point x="477" y="591"/>
      <point x="529" y="634"/>
      <point x="551" y="685" type="curve" smooth="yes"/>
      <point x="645" y="901" type="line"/>
      <point x="734" y="688" type="line" smooth="yes"/>
      <point x="758" y="631"/>
      <point x="810" y="593"/>
      <point x="865" y="593" type="curve" smooth="yes"/>
      <point x="937" y="593"/>
      <point x="988" y="657"/>
      <point x="988" y="714" type="curve" smooth="yes"/>
      <point x="988" y="757"/>
      <point x="966" y="803"/>
      <point x="933" y="832" type="curve" smooth="yes"/>
      <point x="755" y="988" type="line"/>
      <point x="988" y="1007" type="line" smooth="yes"/>
      <point x="1062" y="1013"/>
      <point x="1123" y="1067"/>
      <point x="1123" y="1137" type="curve" smooth="yes"/>
      <point x="1123" y="1225"/>
      <point x="1057" y="1264"/>
      <point x="997" y="1264" type="curve"/>
      <point x="968" y="1265"/>
      <point x="939" y="1255"/>
      <point x="914" y="1241" type="curve" smooth="yes"/>
      <point x="709" y="1121" type="line"/>
      <point x="763" y="1347" type="line" smooth="yes"/>
      <point x="766" y="1360"/>
      <point x="768" y="1373"/>
      <point x="768" y="1386" type="curve" smooth="yes"/>
      <point x="768" y="1458"/>
      <point x="719" y="1523"/>
      <point x="638" y="1523" type="curve" smooth="yes"/>
      <point x="557" y="1523"/>
      <point x="513" y="1452"/>
      <point x="513" y="1384" type="curve" smooth="yes" name="hr02"/>
      <point x="513" y="1372"/>
      <point x="514" y="1360"/>
      <point x="517" y="1349" type="curve" smooth="yes"/>
      <point x="566" y="1126" type="line"/>
      <point x="372" y="1242" type="line" smooth="yes"/>
      <point x="344" y="1258"/>
      <point x="317" y="1268"/>
      <point x="288" y="1268" type="curve" smooth="yes"/>
      <point x="228" y="1268"/>
      <point x="161" y="1223"/>
      <point x="161" y="1138" type="curve" smooth="yes"/>
      <point x="161" y="1068"/>
      <point x="228" y="1018"/>
      <point x="295" y="1010" type="curve"/>
      <point x="535" y="987" type="line"/>
      <point x="356" y="833" type="line" smooth="yes"/>
      <point x="319" y="801"/>
      <point x="299" y="759"/>
      <point x="299" y="717" type="curve" smooth="yes"/>
      <point x="299" y="661"/>
      <point x="347" y="592"/>
    </contour>
  </outline>
</glyph>
<glyph name="hyphen" format="1">
  <advance width="1254"/>
  <unicode hex="002D"/>
  <outline>
    <contour>
      <point x="200" y="533" type="curve" name="hr00"/>
      <point x="879" y="533" type="line" smooth="yes"/>
      <point x="967" y="533"/>
      <point x="1044" y="625"/>
      <point x="1054" y="719" type="curve"/>
      <point x="375" y="719" type="line" smooth="yes"/>
      <point x="285" y="719"/>
      <point x="209" y="627"/>
    </contour>
  </outline>
</glyph>
<glyph name="zero" format="1">
  <advance width="1325"/>
  <unicode hex="0030"/>
  <outline>
    <contour>
      <point x="227" y="254" type="line" smooth="yes" name="hr00"/>
      <point x="227" y="114"/>
      <point x="312" y="0"/>
      <point x="417" y="0" type="curve"/>
      <point x="909" y="0" type="line"/>
      <point x="1012" y="0"/>
      <point x="1098" y="114"/>
      <point x="1098" y="254" type="curve"/>
      <point x="1098" y="1262" type="line"/>
      <point x="1098" y="1405"/>
      <point x="1011" y="1517"/>
      <point x="908" y="1517" type="curve"/>
      <point x="417" y="1517" type="line"/>
      <point x="312" y="1517"/>
      <point x="227" y="1405"/>
      <point x="227" y="1262" type="curve"/>
    </contour>
    <contour>
      <point x="465" y="172" type="line"/>
      <point x="465" y="1346" type="line"/>
      <point x="860" y="1346" type="line"/>
      <point x="860" y="172" type="line"/>
    </contour>
  </outline>
</glyph>
<glyph name="one" format="1">
  <advance width="843"/>
  <unicode hex="0031"/>
  <outline>
    <contour>
      <point x="326" y="0" type="line" name="hr00"/>
      <point x="565" y="0" type="line"/>
      <point x="565" y="1516" type="line"/>
      <point x="172" y="1516" type="line"/>
      <point x="172" y="1345" type="line"/>
      <point x="326" y="1345" type="line"/>
    </contour>
  </outline>
</glyph>
<glyph name="three" format="1">
  <advance width="1297"/>
  <unicode hex="0033"/>
  <outline>
    <contour>
      <point x="190" y="254" type="line" smooth="yes" name="hr00"/>
      <point x="190" y="114"/>
      <point x="276" y="0"/>
      <point x="381" y="0" type="curve" smooth="yes"/>
      <point x="879" y="0" type="line" smooth="yes"/>
      <point x="984" y="0"/>
      <point x="1070" y="114"/>
      <point x="1070" y="254" type="curve" smooth="yes"/>
      <point x="1070" y="483" type="line" smooth="yes"/>
      <point x="1070" y="594"/>
      <point x="1006" y="689"/>
      <point x="920" y="733" type="curve"/>
      <point x="1006" y="775"/>
      <point x="1070" y="874"/>
      <point x="1070" y="984" type="curve" smooth="yes"/>
      <point x="1070" y="1259" type="line" smooth="yes"/>
      <point x="1070" y="1400"/>
      <point x="984" y="1513"/>
      <point x="879" y="1513" type="curve" smooth="yes"/>
      <point x="381" y="1513" type="line" smooth="yes"/>
      <point x="276" y="1513"/>
      <point x="190" y="1400"/>
      <point x="190" y="1259" type="curve" smooth="yes"/>
      <point x="190" y="1152" type="line"/>
      <point x="428" y="1152" type="line"/>
      <point x="428" y="1341" type="line"/>
      <point x="830" y="1341" type="line"/>
      <point x="830" y="814" type="line"/>
      <point x="492" y="814" type="line"/>
      <point x="492" y="643" type="line"/>
      <point x="830" y="643" type="line"/>
      <point x="830" y="172" type="line"/>
      <point x="428" y="172" type="line"/>
      <point x="428" y="322" type="line"/>
      <point x="190" y="322" type="line"/>
    </contour>
  </outline>
</glyph>
<glyph name="nine" format="1">
  <advance width="1327"/>
  <unicode hex="0039"/>
  <outline>
    <contour>
      <point x="358" y="0" type="line" name="hr00"/>
      <point x="907" y="0" type="line" smooth="yes"/>
      <point x="1014" y="0"/>
      <point x="1100" y="114"/>
      <point x="1100" y="254" type="curve" smooth="yes"/>
      <point x="1100" y="1261" type="line" smooth="yes"/>
      <point x="1100" y="1402"/>
      <point x="1014" y="1515"/>
      <point x="907" y="1515" type="curve" smooth="yes"/>
      <point x="418" y="1515" type="line" smooth="yes"/>
      <point x="313" y="1515"/>
      <point x="227" y="1402"/>
      <point x="227" y="1261" type="curve" smooth="yes"/>
      <point x="227" y="760" type="line" smooth="yes"/>
      <point x="227" y="617"/>
      <point x="313" y="504"/>
      <point x="418" y="504" type="curve" smooth="yes"/>
      <point x="860" y="504" type="line"/>
      <point x="860" y="172" type="line"/>
      <point x="358" y="172" type="line"/>
    </contour>
    <contour>
      <point x="465" y="667" type="line"/>
      <point x="465" y="1343" type="line"/>
      <point x="860" y="1343" type="line"/>
      <point x="860" y="667" type="line"/>
    </contour>
  </outline>
</glyph>
<glyph name="equal" format="1">
  <advance width="1285"/>
  <unicode hex="003D"/>
  <outline>
    <contour>
      <point x="250" y="683" type="line" name="hr00"/>
      <point x="1124" y="683" type="line"/>
      <point x="1124" y="859" type="line"/>
      <point x="250" y="859" type="line"/>
    </contour>
    <contour>
      <point x="250" y="181" type="line"/>
      <point x="1124" y="181" type="line"/>
      <point x="1124" y="356" type="line"/>
      <point x="250" y="356" type="line"/>
    </contour>
  </outline>
</glyph>
<glyph name="A" format="1">
  <advance width="1327"/>
  <unicode hex="0041"/>
  <outline>
    <contour>
      <point x="162" y="0" type="line" name="hr00"/>
      <point x="398" y="0" type="line"/>
      <point x="459" y="381" type="line"/>
      <point x="950" y="381" type="line"/>
      <point x="1012" y="0" type="line"/>
      <point x="1251" y="0" type="line"/>
      <point x="1023" y="1326" type="line" smooth="yes"/>
      <point x="1004" y="1437"/>
      <point x="912" y="1516"/>
      <point x="828" y="1516" type="curve" smooth="yes"/>
      <point x="585" y="1516" type="line" smooth="yes"/>
      <point x="499" y="1516"/>
      <point x="409" y="1437"/>
      <point x="390" y="1327" type="curve" smooth="yes"/>
      <point x="257" y="552" type="line"/>
      <point x="171" y="552" type="line" smooth="yes"/>
      <point x="83" y="552"/>
      <point x="6" y="475"/>
      <point x="-4" y="381" type="curve"/>
      <point x="227" y="381" type="line"/>
    </contour>
    <contour>
      <point x="486" y="552" type="line"/>
      <point x="528" y="820"/>
      <point x="570" y="1090"/>
      <point x="612" y="1347" type="curve"/>
      <point x="795" y="1347" type="line"/>
      <point x="923" y="552" type="line"/>
    </contour>
    <contour>
      <point x="717" y="1770" type="move" name="top"/>
    </contour>
  </outline>
</glyph>
<glyph name="C" format="1">
  <advance width="1328"/>
  <unicode hex="0043"/>
  <outline>
    <contour>
      <point x="200" y="252" type="line" smooth="yes" name="hr00"/>
      <point x="200" y="113"/>
      <point x="286" y="0"/>
      <point x="389" y="0" type="curve" smooth="yes"/>
      <point x="1032" y="0" type="line" smooth="yes"/>
      <point x="1120" y="0"/>
      <point x="1197" y="77"/>
      <point x="1207" y="171" type="curve"/>
      <point x="437" y="171" type="line"/>
      <point x="437" y="1347" type="line"/>
      <point x="897" y="1347" type="line"/>
      <point x="897" y="871" type="line"/>
      <point x="1135" y="871" type="line"/>
      <point x="1135" y="1262" type="line" smooth="yes"/>
      <point x="1135" y="1404"/>
      <point x="1049" y="1516"/>
      <point x="945" y="1516" type="curve" smooth="yes"/>
      <point x="389" y="1516" type="line" smooth="yes"/>
      <point x="286" y="1516"/>
      <point x="200" y="1404"/>
      <point x="200" y="1262" type="curve" smooth="yes"/>
    </contour>
    <contour>
      <point x="661" y="1702" type="move" name="top"/>
    </contour>
    <contour>
      <point x="663" y="-15" type="move" name="btm"/>
    </contour>
    <contour>
      <point x="723" y="1770" type="move" name="top"/>
    </contour>
  </outline>
</glyph>
<glyph name="E" format="1">
  <advance width="1172"/>
  <unicode hex="0045"/>
  <outline>
    <contour>
      <point x="230" y="252" type="line" smooth="yes" name="hr00"/>
      <point x="230" y="113"/>
      <point x="314" y="0"/>
      <point x="420" y="0" type="curve" smooth="yes"/>
      <point x="960" y="0" type="line" smooth="yes"/>
      <point x="1048" y="0"/>
      <point x="1125" y="77"/>
      <point x="1135" y="171" type="curve"/>
      <point x="470" y="171" type="line"/>
      <point x="470" y="564" type="line"/>
      <point x="866" y="564" type="line"/>
      <point x="866" y="725" type="line"/>
      <point x="470" y="725" type="line"/>
      <point x="470" y="1347" type="line"/>
      <point x="1046" y="1347" type="line"/>
      <point x="1046" y="1516" type="line"/>
      <point x="418" y="1516" type="line" smooth="yes"/>
      <point x="314" y="1516"/>
      <point x="230" y="1404"/>
      <point x="230" y="1262" type="curve" smooth="yes"/>
      <point x="230" y="725" type="line"/>
      <point x="170" y="725" type="line" smooth="yes"/>
      <point x="85" y="725"/>
      <point x="13" y="652"/>
      <point x="5" y="564" type="curve"/>
      <point x="230" y="564" type="line"/>
    </contour>
    <contour>
      <point x="707" y="1770" type="move" name="top"/>
    </contour>
  </outline>
</glyph>
<glyph name="I" format="1">
  <advance width="1102"/>
  <unicode hex="0049"/>
  <outline>
    <contour>
      <point x="319" y="0" type="line" name="hr00"/>
      <point x="684" y="0" type="line" smooth="yes"/>
      <point x="788" y="0"/>
      <point x="874" y="113"/>
      <point x="874" y="252" type="curve" smooth="yes"/>
      <point x="874" y="1516" type="line"/>
      <point x="291" y="1516" type="line" smooth="yes"/>
      <point x="185" y="1516"/>
      <point x="100" y="1404"/>
      <point x="100" y="1262" type="curve" smooth="yes"/>
      <point x="100" y="1002" type="line"/>
      <point x="306" y="1002" type="line"/>
      <point x="306" y="1347" type="line"/>
      <point x="636" y="1347" type="line"/>
      <point x="636" y="171" type="line"/>
      <point x="319" y="171" type="line"/>
    </contour>
    <contour>
      <point x="549" y="1770" type="move" name="top"/>
    </contour>
  </outline>
</glyph>
<glyph name="J" format="1">
  <advance width="1244"/>
  <unicode hex="004A"/>
  <outline>
    <contour>
      <point x="134" y="252" type="line" smooth="yes" name="hr00"/>
      <point x="134" y="113"/>
      <point x="219" y="0"/>
      <point x="323" y="0" type="curve" smooth="yes"/>
      <point x="853" y="0" type="line" smooth="yes"/>
      <point x="959" y="0"/>
      <point x="1044" y="115"/>
      <point x="1044" y="254" type="curve" smooth="yes"/>
      <point x="1044" y="1516" type="line"/>
      <point x="354" y="1516" type="line"/>
      <point x="354" y="1347" type="line"/>
      <point x="795" y="1347" type="line"/>
      <point x="795" y="171" type="line"/>
      <point x="367" y="171" type="line"/>
      <point x="367" y="670" type="line"/>
      <point x="134" y="670" type="line"/>
    </contour>
    <contour>
      <point x="675" y="1770" type="move" name="top"/>
    </contour>
  </outline>
</glyph>
<glyph name="K" format="1">
  <advance width="1369"/>
  <unicode hex="004B"/>
  <outline>
    <contour>
      <point x="220" y="0" type="line" name="hr00"/>
      <point x="460" y="0" type="line"/>
      <point x="460" y="595" type="line"/>
      <point x="873" y="595" type="line"/>
      <point x="873" y="252" type="line" smooth="yes"/>
      <point x="873" y="113"/>
      <point x="959" y="0"/>
      <point x="1063" y="0" type="curve" smooth="yes"/>
      <point x="1204" y="0" type="line" smooth="yes"/>
      <point x="1292" y="0"/>
      <point x="1369" y="77"/>
      <point x="1379" y="172" type="curve"/>
      <point x="1113" y="172" type="line"/>
      <point x="1113" y="512" type="line" smooth="yes"/>
      <point x="1113" y="650"/>
      <point x="1041" y="763"/>
      <point x="937" y="763" type="curve" smooth="yes"/>
      <point x="886" y="763" type="line"/>
      <point x="1171" y="1516" type="line"/>
      <point x="917" y="1516" type="line"/>
      <point x="659" y="763" type="line"/>
      <point x="460" y="763" type="line"/>
      <point x="460" y="1516" type="line"/>
      <point x="220" y="1516" type="line"/>
    </contour>
    <contour>
      <point x="665" y="0" type="move" name="btm"/>
    </contour>
  </outline>
</glyph>
<glyph name="L" format="1">
  <advance width="1193"/>
  <unicode hex="004C"/>
  <outline>
    <contour>
      <point x="50" y="0" type="curve" name="hr00"/>
      <point x="980" y="0" type="line" smooth="yes"/>
      <point x="1068" y="0"/>
      <point x="1155" y="74"/>
      <point x="1155" y="170" type="curve" smooth="yes"/>
      <point x="1155" y="391" type="line"/>
      <point x="944" y="391" type="line"/>
      <point x="944" y="171" type="line"/>
      <point x="358" y="171" type="line"/>
      <point x="420" y="182"/>
      <point x="505" y="278"/>
      <point x="505" y="416" type="curve" smooth="yes"/>
      <point x="505" y="1357" type="line"/>
      <point x="776" y="1357" type="line"/>
      <point x="776" y="1516" type="line"/>
      <point x="456" y="1516" type="line" smooth="yes"/>
      <point x="352" y="1516"/>
      <point x="267" y="1404"/>
      <point x="267" y="1262" type="curve" smooth="yes"/>
      <point x="267" y="171" type="line"/>
      <point x="225" y="171" type="line" smooth="yes"/>
      <point x="135" y="171"/>
      <point x="59" y="92"/>
    </contour>
    <contour>
      <point x="640" y="1702" type="move" name="top"/>
    </contour>
    <contour>
      <point x="592" y="0" type="move" name="btm"/>
    </contour>
  </outline>
</glyph>
<glyph name="O" format="1">
  <advance width="1358"/>
  <unicode hex="004F"/>
  <outline>
    <contour>
      <point x="200" y="252" type="line" smooth="yes" name="hr00"/>
      <point x="200" y="113"/>
      <point x="285" y="0"/>
      <point x="388" y="0" type="curve" smooth="yes"/>
      <point x="968" y="0" type="line" smooth="yes"/>
      <point x="1072" y="0"/>
      <point x="1158" y="113"/>
      <point x="1158" y="252" type="curve" smooth="yes"/>
      <point x="1158" y="1262" type="line" smooth="yes"/>
      <point x="1158" y="1404"/>
      <point x="1073" y="1516"/>
      <point x="968" y="1516" type="curve" smooth="yes"/>
      <point x="388" y="1516" type="line" smooth="yes"/>
      <point x="285" y="1516"/>
      <point x="200" y="1404"/>
      <point x="200" y="1262" type="curve" smooth="yes"/>
    </contour>
    <contour>
      <point x="439" y="171" type="line"/>
      <point x="439" y="1347" type="line"/>
      <point x="920" y="1347" type="line"/>
      <point x="920" y="171" type="line"/>
    </contour>
    <contour>
      <point x="680" y="1770" type="move" name="top"/>
    </contour>
  </outline>
</glyph>
<glyph name="Q" format="1">
  <advance width="1402"/>
  <unicode hex="0051"/>
  <outline>
    <contour>
      <point x="282" y="0" type="curve" name="hr00"/>
      <point x="1198" y="0" type="line" smooth="yes"/>
      <point x="1286" y="0"/>
      <point x="1363" y="78"/>
      <point x="1373" y="171" type="curve"/>
      <point x="1016" y="171" type="line"/>
      <point x="1095" y="208"/>
      <point x="1152" y="299"/>
      <point x="1152" y="409" type="curve" smooth="yes"/>
      <point x="1152" y="1262" type="line" smooth="yes"/>
      <point x="1152" y="1404"/>
      <point x="1066" y="1516"/>
      <point x="961" y="1516" type="curve" smooth="yes"/>
      <point x="389" y="1516" type="line" smooth="yes"/>
      <point x="286" y="1516"/>
      <point x="200" y="1404"/>
      <point x="200" y="1262" type="curve" smooth="yes"/>
      <point x="200" y="715" type="line" smooth="yes"/>
      <point x="200" y="573"/>
      <point x="286" y="460"/>
      <point x="390" y="460" type="curve" smooth="yes"/>
      <point x="440" y="460" type="line"/>
      <point x="440" y="1347" type="line"/>
      <point x="913" y="1347" type="line"/>
      <point x="913" y="171" type="line"/>
      <point x="457" y="171" type="line" smooth="yes"/>
      <point x="370" y="171"/>
      <point x="293" y="94"/>
    </contour>
  </outline>
</glyph>
<glyph name="R" format="1">
  <advance width="1388"/>
  <unicode hex="0052"/>
  <outline>
    <contour>
      <point x="237" y="0" type="line" name="hr01"/>
      <point x="473" y="0" type="line"/>
      <point x="474" y="564" type="line"/>
      <point x="920" y="564" type="line" name="hr02"/>
      <point x="920" y="252" type="line" smooth="yes"/>
      <point x="920" y="113"/>
      <point x="1006" y="0"/>
      <point x="1110" y="0" type="curve" smooth="yes"/>
      <point x="1248" y="0" type="line" smooth="yes"/>
      <point x="1336" y="0"/>
      <point x="1413" y="77"/>
      <point x="1423" y="172" type="curve"/>
      <point x="1160" y="172" type="line"/>
      <point x="1161" y="403" type="line" smooth="yes"/>
      <point x="1161" y="495"/>
      <point x="1109" y="614"/>
      <point x="991" y="657" type="curve"/>
      <point x="1074" y="706"/>
      <point x="1120" y="792"/>
      <point x="1120" y="889" type="curve" smooth="yes" name="hr03"/>
      <point x="1120" y="1262" type="line" smooth="yes"/>
      <point x="1120" y="1404"/>
      <point x="1021" y="1516"/>
      <point x="915" y="1516" type="curve" smooth="yes"/>
      <point x="237" y="1516" type="line"/>
      <point x="237" y="735" type="line"/>
      <point x="189" y="735" type="line" smooth="yes"/>
      <point x="99" y="735"/>
      <point x="23" y="658"/>
      <point x="14" y="564" type="curve"/>
      <point x="237" y="564" type="line"/>
    </contour>
    <contour>
      <point x="474" y="735" type="line"/>
      <point x="474" y="1345" type="line"/>
      <point x="883" y="1345" type="line"/>
      <point x="883" y="735" type="line"/>
    </contour>
    <contour>
      <point x="650" y="1770" type="move" name="top"/>
    </contour>
    <contour>
      <point x="728" y="0" type="move" name="btm"/>
    </contour>
  </outline>
</glyph>
<glyph name="T" format="1">
  <advance width="1209"/>
  <unicode hex="0054"/>
  <outline>
    <contour>
      <point x="265" y="0" type="curve" name="hr00"/>
      <point x="783" y="0" type="line" smooth="yes"/>
      <point x="886" y="0"/>
      <point x="972" y="114"/>
      <point x="972" y="253" type="curve" smooth="yes"/>
      <point x="972" y="1347" type="line"/>
      <point x="1179" y="1347" type="line"/>
      <point x="1179" y="1516" type="line"/>
      <point x="240" y="1516" type="line" smooth="yes"/>
      <point x="137" y="1516"/>
      <point x="51" y="1404"/>
      <point x="51" y="1262" type="curve" smooth="yes"/>
      <point x="51" y="1022" type="line"/>
      <point x="290" y="1022" type="line"/>
      <point x="290" y="1347" type="line"/>
      <point x="734" y="1347" type="line"/>
      <point x="734" y="171" type="line"/>
      <point x="440" y="171" type="line" smooth="yes"/>
      <point x="352" y="171"/>
      <point x="275" y="94"/>
    </contour>
    <contour>
      <point x="839" y="1770" type="move" name="top"/>
    </contour>
    <contour>
      <point x="615" y="0" type="move" name="btm"/>
    </contour>
  </outline>
</glyph>
<glyph name="V" format="1">
  <advance width="1339"/>
  <unicode hex="0056"/>
  <outline>
    <contour>
      <point x="531" y="0" type="line" name="hr01"/>
      <point x="853" y="0" type="line"/>
      <point x="1245" y="1516" type="line"/>
      <point x="1003" y="1516" type="line"/>
      <point x="692" y="152" type="line" name="hr02"/>
      <point x="372" y="1516" type="line"/>
      <point x="159" y="1516" type="line" smooth="yes"/>
      <point x="71" y="1516"/>
      <point x="-6" y="1439"/>
      <point x="-16" y="1345" type="curve"/>
      <point x="170" y="1345" type="line"/>
    </contour>
  </outline>
</glyph>
<glyph name="Z" format="1">
  <advance width="1143"/>
  <unicode hex="005A"/>
  <outline>
    <contour>
      <point x="136" y="0" type="line" name="hr00"/>
      <point x="919" y="0" type="line" smooth="yes"/>
      <point x="1007" y="0"/>
      <point x="1084" y="83"/>
      <point x="1094" y="178" type="curve"/>
      <point x="370" y="177" type="line"/>
      <point x="1017" y="1343" type="line"/>
      <point x="1017" y="1516" type="line"/>
      <point x="161" y="1516" type="line"/>
      <point x="161" y="1347" type="line"/>
      <point x="783" y="1347" type="line"/>
      <point x="136" y="176" type="line"/>
    </contour>
    <contour>
      <point x="608" y="1770" type="move" name="top"/>
    </contour>
  </outline>
</glyph>
<glyph name="bracketright" format="1">
  <advance width="1113"/>
  <unicode hex="005D"/>
  <outline>
    <contour>
      <point x="238" y="-244" type="line" name="hr00"/>
      <point x="238" y="-388" type="line"/>
      <point x="567" y="-388" type="line" smooth="yes"/>
      <point x="694" y="-388"/>
      <point x="796" y="-278"/>
      <point x="796" y="-142" type="curve" smooth="yes"/>
      <point x="796" y="1536" type="line" smooth="yes"/>
      <point x="796" y="1672"/>
      <point x="694" y="1781"/>
      <point x="567" y="1781" type="curve" smooth="yes"/>
      <point x="238" y="1781" type="line"/>
      <point x="238" y="1634" type="line"/>
      <point x="566" y="1634" type="line"/>
      <point x="566" y="-244" type="line"/>
    </contour>
  </outline>
</glyph>
<glyph name="a" format="1">
  <advance width="1281"/>
  <unicode hex="0061"/>
  <outline>
    <contour>
      <point x="192" y="251" type="line" smooth="yes" name="hr00"/>
      <point x="192" y="113"/>
      <point x="277" y="0"/>
      <point x="382" y="0" type="curve" smooth="yes"/>
      <point x="685" y="0" type="line" smooth="yes"/>
      <point x="750" y="0"/>
      <point x="813" y="48"/>
      <point x="851" y="124" type="curve"/>
      <point x="889" y="48"/>
      <point x="952" y="0"/>
      <point x="1017" y="0" type="curve"/>
      <point x="1124" y="0" type="line" smooth="yes"/>
      <point x="1212" y="0"/>
      <point x="1289" y="77"/>
      <point x="1299" y="171" type="curve"/>
      <point x="1082" y="171" type="line"/>
      <point x="1082" y="1048" type="line"/>
      <point x="408" y="1048" type="line" smooth="yes"/>
      <point x="285" y="1048"/>
      <point x="192" y="926"/>
      <point x="192" y="765" type="curve" smooth="yes"/>
    </contour>
    <contour>
      <point x="430" y="171" type="line"/>
      <point x="430" y="876" type="line"/>
      <point x="844" y="876" type="line"/>
      <point x="844" y="171" type="line"/>
    </contour>
    <contour>
      <point x="639" y="1530" type="move" name="top"/>
    </contour>
    <contour>
      <point x="745" y="0" type="move" name="btm"/>
    </contour>
  </outline>
</glyph>
<glyph name="g" format="1">
  <advance width="1275"/>
  <unicode hex="0067"/>
  <outline>
    <contour>
      <point x="192" y="254" type="line" smooth="yes" name="hr00"/>
      <point x="192" y="114"/>
      <point x="277" y="0"/>
      <point x="382" y="0" type="curve" smooth="yes"/>
      <point x="684" y="0" type="line" smooth="yes"/>
      <point x="745" y="0"/>
      <point x="804" y="42"/>
      <point x="843" y="111" type="curve"/>
      <point x="843" y="-368" type="line"/>
      <point x="408" y="-368" type="line"/>
      <point x="408" y="-541" type="line"/>
      <point x="893" y="-541" type="line" smooth="yes"/>
      <point x="996" y="-541"/>
      <point x="1082" y="-425"/>
      <point x="1082" y="-285" type="curve" smooth="yes"/>
      <point x="1082" y="0" type="line"/>
      <point x="1118" y="0" type="line" smooth="yes"/>
      <point x="1206" y="0"/>
      <point x="1283" y="77"/>
      <point x="1293" y="171" type="curve"/>
      <point x="1082" y="171" type="line"/>
      <point x="1082" y="1047" type="line"/>
      <point x="382" y="1047" type="line" smooth="yes"/>
      <point x="277" y="1047"/>
      <point x="192" y="934"/>
      <point x="192" y="793" type="curve" smooth="yes"/>
    </contour>
    <contour>
      <point x="430" y="171" type="line"/>
      <point x="430" y="876" type="line"/>
      <point x="843" y="876" type="line"/>
      <point x="843" y="171" type="line"/>
    </contour>
    <contour>
      <point x="663" y="1530" type="move" name="top"/>
    </contour>
    <contour>
      <point x="742" y="0" type="move" name="btm"/>
    </contour>
  </outline>
</glyph>
<glyph name="h" format="1">
  <advance width="1275"/>
  <unicode hex="0068"/>
  <outline>
    <contour>
      <point x="192" y="0" type="line" name="hr00"/>
      <point x="431" y="0" type="line"/>
      <point x="431" y="876" type="line"/>
      <point x="843" y="876" type="line"/>
      <point x="843" y="254" type="line" smooth="yes"/>
      <point x="843" y="114"/>
      <point x="929" y="0"/>
      <point x="1034" y="0" type="curve" smooth="yes"/>
      <point x="1123" y="0" type="line" smooth="yes"/>
      <point x="1209" y="0"/>
      <point x="1286" y="77"/>
      <point x="1296" y="171" type="curve"/>
      <point x="1082" y="171" type="line"/>
      <point x="1082" y="793" type="line" smooth="yes"/>
      <point x="1082" y="934"/>
      <point x="995" y="1047"/>
      <point x="892" y="1047" type="curve" smooth="yes"/>
      <point x="591" y="1047" type="line" smooth="yes"/>
      <point x="526" y="1047"/>
      <point x="468" y="1004"/>
      <point x="431" y="933" type="curve"/>
      <point x="431" y="1590" type="line"/>
      <point x="192" y="1590" type="line"/>
    </contour>
    <contour>
      <point x="307" y="1802" type="move" name="top"/>
    </contour>
    <contour>
      <point x="669" y="0" type="move" name="btm"/>
    </contour>
  </outline>
</glyph>
<glyph name="i" format="1">
  <advance width="612"/>
  <unicode hex="0069"/>
  <outline>
    <contour>
      <point x="297" y="1289" type="curve" smooth="yes" name="hr00"/>
      <point x="389" y="1289"/>
      <point x="466" y="1364"/>
      <point x="466" y="1457" type="curve" smooth="yes"/>
      <point x="466" y="1550"/>
      <point x="390" y="1626"/>
      <point x="297" y="1626" type="curve" smooth="yes"/>
      <point x="204" y="1626"/>
      <point x="129" y="1550"/>
      <point x="129" y="1457" type="curve" smooth="yes"/>
      <point x="129" y="1364"/>
      <point x="204" y="1289"/>
    </contour>
    <contour>
      <point x="180" y="254" type="line" smooth="yes"/>
      <point x="180" y="114"/>
      <point x="266" y="0"/>
      <point x="371" y="0" type="curve" smooth="yes"/>
      <point x="459" y="0" type="line" smooth="yes"/>
      <point x="547" y="0"/>
      <point x="624" y="77"/>
      <point x="633" y="171" type="curve"/>
      <point x="419" y="171" type="line"/>
      <point x="419" y="1047" type="line"/>
      <point x="180" y="1047" type="line"/>
    </contour>
    <contour>
      <point x="381" y="0" type="move" name="btm"/>
    </contour>
  </outline>
</glyph>
<glyph name="j" format="1">
  <advance width="592"/>
  <unicode hex="006A"/>
  <outline>
    <contour>
      <point x="309" y="1289" type="curve" smooth="yes" name="hr01"/>
      <point x="401" y="1289"/>
      <point x="478" y="1364"/>
      <point x="478" y="1457" type="curve" smooth="yes"/>
      <point x="478" y="1550"/>
      <point x="402" y="1626"/>
      <point x="309" y="1626" type="curve" smooth="yes"/>
      <point x="216" y="1626"/>
      <point x="141" y="1550"/>
      <point x="141" y="1457" type="curve" smooth="yes"/>
      <point x="141" y="1364"/>
      <point x="216" y="1289"/>
    </contour>
    <contour>
      <point x="46" y="-368" type="line"/>
      <point x="46" y="-541" type="line"/>
      <point x="242" y="-541" type="line" smooth="yes"/>
      <point x="347" y="-541"/>
      <point x="431" y="-425"/>
      <point x="431" y="-285" type="curve" smooth="yes" name="hr02"/>
      <point x="431" y="1047" type="line"/>
      <point x="192" y="1047" type="line"/>
      <point x="192" y="-368" type="line"/>
    </contour>
    <contour>
      <point x="242" y="0" type="move" name="btm"/>
    </contour>
  </outline>
</glyph>
<glyph name="k" format="1">
  <advance width="1263"/>
  <unicode hex="006B"/>
  <outline>
    <contour>
      <point x="192" y="0" type="line" name="hr00"/>
      <point x="431" y="0" type="line"/>
      <point x="431" y="457" type="line"/>
      <point x="815" y="457" type="line"/>
      <point x="815" y="254" type="line" smooth="yes"/>
      <point x="815" y="114"/>
      <point x="902" y="0"/>
      <point x="1005" y="0" type="curve" smooth="yes"/>
      <point x="1108" y="0" type="line" smooth="yes"/>
      <point x="1196" y="0"/>
      <point x="1273" y="77"/>
      <point x="1283" y="171" type="curve"/>
      <point x="1053" y="171" type="line"/>
      <point x="1053" y="371" type="line" smooth="yes"/>
      <point x="1053" y="502"/>
      <point x="971" y="609"/>
      <point x="863" y="628" type="curve"/>
      <point x="1104" y="1047" type="line"/>
      <point x="853" y="1047" type="line"/>
      <point x="626" y="625" type="line"/>
      <point x="431" y="625" type="line"/>
      <point x="431" y="1591" type="line"/>
      <point x="192" y="1591" type="line"/>
    </contour>
    <contour>
      <point x="618" y="0" type="move" name="btm"/>
    </contour>
    <contour>
      <point x="601" y="1530" type="move" name="top"/>
    </contour>
  </outline>
</glyph>
<glyph name="n" format="1">
  <advance width="1311"/>
  <unicode hex="006E"/>
  <outline>
    <contour>
      <point x="220" y="0" type="line" name="hr01"/>
      <point x="459" y="0" type="line"/>
      <point x="459" y="430" type="line"/>
      <point x="879" y="862" type="line"/>
      <point x="879" y="254" type="line" smooth="yes"/>
      <point x="879" y="114"/>
      <point x="963" y="0"/>
      <point x="1069" y="0" type="curve" smooth="yes"/>
      <point x="1147" y="0" type="line" smooth="yes"/>
      <point x="1235" y="0"/>
      <point x="1312" y="77"/>
      <point x="1322" y="172" type="curve"/>
      <point x="1120" y="172" type="line"/>
      <point x="1120" y="794" type="line" smooth="yes"/>
      <point x="1120" y="935"/>
      <point x="1024" y="1048"/>
      <point x="917" y="1048" type="curve" smooth="yes"/>
      <point x="853" y="1048"/>
      <point x="810" y="1020"/>
      <point x="768" y="971" type="curve" smooth="yes"/>
      <point x="459" y="651" type="line"/>
      <point x="459" y="1047" type="line" name="hr02"/>
      <point x="220" y="1047" type="line"/>
    </contour>
    <contour>
      <point x="699" y="1530" type="move" name="top"/>
    </contour>
    <contour>
      <point x="779" y="0" type="move" name="btm"/>
    </contour>
  </outline>
</glyph>
<glyph name="o" format="1">
  <advance width="1275"/>
  <unicode hex="006F"/>
  <outline>
    <contour>
      <point x="192" y="252" type="line" smooth="yes" name="hr00"/>
      <point x="192" y="113"/>
      <point x="277" y="0"/>
      <point x="380" y="0" type="curve" smooth="yes"/>
      <point x="892" y="0" type="line" smooth="yes"/>
      <point x="996" y="0"/>
      <point x="1082" y="113"/>
      <point x="1082" y="252" type="curve" smooth="yes"/>
      <point x="1082" y="651" type="line" smooth="yes"/>
      <point x="1082" y="757"/>
      <point x="1032" y="838"/>
      <point x="980" y="876" type="curve"/>
      <point x="1043" y="876" type="line" smooth="yes"/>
      <point x="1131" y="876"/>
      <point x="1208" y="953"/>
      <point x="1218" y="1047" type="curve"/>
      <point x="380" y="1047" type="line" smooth="yes"/>
      <point x="277" y="1047"/>
      <point x="192" y="935"/>
      <point x="192" y="793" type="curve" smooth="yes"/>
    </contour>
    <contour>
      <point x="431" y="171" type="line"/>
      <point x="431" y="876" type="line"/>
      <point x="843" y="876" type="line"/>
      <point x="843" y="171" type="line"/>
    </contour>
    <contour>
      <point x="644" y="1530" type="move" name="top"/>
    </contour>
    <contour>
      <point x="705" y="0" type="move" name="btm"/>
    </contour>
  </outline>
</glyph>
<glyph name="p" format="1">
  <advance width="1275"/>
  <unicode hex="0070"/>
  <outline>
    <contour>
      <point x="430" y="112" type="line" name="hr01"/>
      <point x="469" y="44"/>
      <point x="527" y="0"/>
      <point x="591" y="0" type="curve" smooth="yes" name="hr02"/>
      <point x="1118" y="0" type="line" smooth="yes"/>
      <point x="1206" y="0"/>
      <point x="1283" y="77"/>
      <point x="1293" y="171" type="curve"/>
      <point x="1082" y="171" type="line"/>
      <point x="1082" y="793" type="line" smooth="yes"/>
      <point x="1082" y="934"/>
      <point x="996" y="1047"/>
      <point x="893" y="1047" type="curve" smooth="yes"/>
      <point x="192" y="1047" type="line"/>
      <point x="192" y="-541" type="line"/>
      <point x="244" y="-541" type="line" smooth="yes"/>
      <point x="348" y="-541"/>
      <point x="431" y="-425"/>
      <point x="431" y="-285" type="curve" smooth="yes"/>
    </contour>
    <contour>
      <point x="430" y="172" type="line"/>
      <point x="430" y="876" type="line"/>
      <point x="843" y="876" type="line"/>
      <point x="843" y="172" type="line"/>
    </contour>
    <contour>
      <point x="657" y="1530" type="move" name="top"/>
    </contour>
    <contour>
      <point x="742" y="0" type="move" name="btm"/>
    </contour>
  </outline>
</glyph>
<glyph name="r" format="1">
  <advance width="1275"/>
  <unicode hex="0072"/>
  <outline>
    <contour>
      <point x="192" y="0" type="line" name="hr00"/>
      <point x="430" y="0" type="line"/>
      <point x="430" y="876" type="line"/>
      <point x="776" y="876" type="line"/>
      <point x="776" y="254" type="line" smooth="yes"/>
      <point x="776" y="114"/>
      <point x="862" y="0"/>
      <point x="967" y="0" type="curve" smooth="yes"/>
      <point x="1067" y="0" type="line" smooth="yes"/>
      <point x="1160" y="0"/>
      <point x="1237" y="77"/>
      <point x="1247" y="171" type="curve"/>
      <point x="1015" y="171" type="line"/>
      <point x="1015" y="876" type="line"/>
      <point x="1099" y="876"/>
      <point x="1176" y="953"/>
      <point x="1186" y="1047" type="curve"/>
      <point x="432" y="1047" type="line"/>
      <point x="432" y="1157" type="line"/>
      <point x="192" y="1157" type="line"/>
    </contour>
    <contour>
      <point x="635" y="1530" type="move" name="top"/>
    </contour>
    <contour>
      <point x="618" y="0" type="move" name="btm"/>
    </contour>
  </outline>
</glyph>
<glyph name="s" format="1">
  <advance width="1266"/>
  <unicode hex="0073"/>
  <outline>
    <contour>
      <point x="79" y="0" type="line" name="hr00"/>
      <point x="326" y="0" type="line"/>
      <point x="642" y="840" type="line"/>
      <point x="656" y="748"/>
      <point x="696" y="686"/>
      <point x="731" y="641" type="curve" smooth="yes"/>
      <point x="797" y="569"/>
      <point x="878" y="489"/>
      <point x="868" y="379" type="curve" smooth="yes"/>
      <point x="858" y="240"/>
      <point x="774" y="184"/>
      <point x="688" y="174" type="curve"/>
      <point x="681" y="83"/>
      <point x="717" y="0"/>
      <point x="840" y="0" type="curve" smooth="yes"/>
      <point x="1114" y="0" type="line" smooth="yes"/>
      <point x="1198" y="0"/>
      <point x="1269" y="70"/>
      <point x="1305" y="173" type="curve"/>
      <point x="933" y="173" type="line"/>
      <point x="1034" y="199"/>
      <point x="1122" y="294"/>
      <point x="1126" y="407" type="curve" smooth="yes"/>
      <point x="1131" y="566"/>
      <point x="1006" y="708"/>
      <point x="899" y="792" type="curve" smooth="yes"/>
      <point x="806" y="873"/>
      <point x="712" y="930"/>
      <point x="719" y="1028" type="curve"/>
      <point x="721" y="1046"/>
      <point x="727" y="1078"/>
      <point x="739" y="1107" type="curve"/>
      <point x="499" y="1107" type="line"/>
    </contour>
    <contour>
      <point x="635" y="1530" type="move" name="top"/>
    </contour>
    <contour>
      <point x="645" y="0" type="move" name="btm"/>
    </contour>
  </outline>
</glyph>
<glyph name="t" format="1">
  <advance width="765"/>
  <unicode hex="0074"/>
  <outline>
    <contour>
      <point x="222" y="254" type="line" smooth="yes" name="hr00"/>
      <point x="222" y="114"/>
      <point x="307" y="0"/>
      <point x="412" y="0" type="curve" smooth="yes"/>
      <point x="643" y="0" type="line" smooth="yes"/>
      <point x="731" y="0"/>
      <point x="808" y="77"/>
      <point x="819" y="171" type="curve"/>
      <point x="461" y="171" type="line"/>
      <point x="461" y="893" type="line"/>
      <point x="730" y="893" type="line"/>
      <point x="730" y="1047" type="line"/>
      <point x="461" y="1047" type="line"/>
      <point x="461" y="1444" type="line"/>
      <point x="222" y="1325" type="line"/>
      <point x="222" y="1047" type="line"/>
      <point x="142" y="1047" type="line"/>
      <point x="142" y="893" type="line"/>
      <point x="222" y="893" type="line"/>
    </contour>
    <contour>
      <point x="347" y="1811" type="move" name="top"/>
    </contour>
    <contour>
      <point x="475" y="0" type="move" name="btm"/>
    </contour>
  </outline>
</glyph>
<glyph name="u" format="1">
  <advance width="1263"/>
  <unicode hex="0075"/>
  <outline>
    <contour>
      <point x="180" y="254" type="line" smooth="yes" name="hr00"/>
      <point x="180" y="114"/>
      <point x="265" y="0"/>
      <point x="370" y="0" type="curve" smooth="yes"/>
      <point x="675" y="0" type="line" smooth="yes"/>
      <point x="735" y="0"/>
      <point x="804" y="52"/>
      <point x="832" y="127" type="curve"/>
      <point x="910" y="0" type="line"/>
      <point x="1098" y="0" type="line" smooth="yes"/>
      <point x="1186" y="0"/>
      <point x="1263" y="77"/>
      <point x="1273" y="171" type="curve"/>
      <point x="1070" y="171" type="line"/>
      <point x="1070" y="1047" type="line"/>
      <point x="832" y="1047" type="line"/>
      <point x="832" y="171" type="line"/>
      <point x="419" y="171" type="line"/>
      <point x="419" y="1047" type="line"/>
      <point x="180" y="1047" type="line"/>
    </contour>
    <contour>
      <point x="622" y="1530" type="move" name="top"/>
    </contour>
    <contour>
      <point x="726" y="0" type="move" name="btm"/>
    </contour>
  </outline>
</glyph>
<glyph name="v" format="1">
  <advance width="1103"/>
  <unicode hex="0076"/>
  <outline>
    <contour>
      <point x="403" y="0" type="line" name="hr01"/>
      <point x="709" y="0" type="line"/>
      <point x="1072" y="1047" type="line"/>
      <point x="830" y="1047" type="line"/>
      <point x="557" y="168" type="line" name="hr02"/>
      <point x="284" y="1047" type="line"/>
      <point x="41" y="1047" type="line"/>
    </contour>
    <contour>
      <point x="551" y="0" type="move" name="btm"/>
    </contour>
    <contour>
      <point x="551" y="1530" type="move" name="top"/>
    </contour>
  </outline>
</glyph>
<glyph name="z" format="1">
  <advance width="1083"/>
  <unicode hex="007A"/>
  <outline>
    <contour>
      <point x="162" y="0" type="line" name="hr00"/>
      <point x="890" y="0" type="line" smooth="yes"/>
      <point x="978" y="0"/>
      <point x="1055" y="77"/>
      <point x="1065" y="171" type="curve"/>
      <point x="420" y="171" type="line"/>
      <point x="987" y="863" type="line"/>
      <point x="987" y="1047" type="line"/>
      <point x="192" y="1047" type="line"/>
      <point x="192" y="876" type="line"/>
      <point x="732" y="876" type="line"/>
      <point x="162" y="186" type="line"/>
    </contour>
    <contour>
      <point x="572" y="1530" type="move" name="top"/>
    </contour>
    <contour>
      <point x="611" y="0" type="move" name="btm"/>
    </contour>
  </outline>
</glyph>
<glyph name="bar" format="1">
  <advance width="775"/>
  <unicode hex="007C"/>
  <outline>
    <contour>
      <point x="299" y="-354" type="line" name="hr00"/>
      <point x="476" y="-354" type="line"/>
      <point x="476" y="1735" type="line"/>
      <point x="299" y="1735" type="line"/>
    </contour>
  </outline>
</glyph>
<glyph name="cent" format="1">
  <advance width="1385"/>
  <unicode hex="00A2"/>
  <outline>
    <contour>
      <point x="277" y="355" type="line" smooth="yes" name="hr00"/>
      <point x="277" y="216"/>
      <point x="362" y="103"/>
      <point x="465" y="103" type="curve" smooth="yes"/>
      <point x="666" y="103" type="line"/>
      <point x="666" y="-156" type="line"/>
      <point x="823" y="-156" type="line"/>
      <point x="823" y="103" type="line"/>
      <point x="997" y="103" type="line" smooth="yes"/>
      <point x="1101" y="103"/>
      <point x="1187" y="216"/>
      <point x="1187" y="355" type="curve" smooth="yes"/>
      <point x="1187" y="390" type="line"/>
      <point x="949" y="390" type="line"/>
      <point x="949" y="274" type="line"/>
      <point x="823" y="274" type="line"/>
      <point x="823" y="979" type="line"/>
      <point x="949" y="979" type="line"/>
      <point x="949" y="727" type="line"/>
      <point x="1187" y="727" type="line"/>
      <point x="1188" y="894" type="line" smooth="yes"/>
      <point x="1188" y="1036"/>
      <point x="1102" y="1148"/>
      <point x="997" y="1148" type="curve" smooth="yes"/>
      <point x="823" y="1148" type="line"/>
      <point x="823" y="1408" type="line"/>
      <point x="667" y="1408" type="line"/>
      <point x="667" y="1148" type="line"/>
      <point x="465" y="1148" type="line" smooth="yes"/>
      <point x="362" y="1148"/>
      <point x="277" y="1036"/>
      <point x="277" y="894" type="curve" smooth="yes"/>
    </contour>
    <contour>
      <point x="516" y="274" type="line"/>
      <point x="516" y="979" type="line"/>
      <point x="667" y="979" type="line"/>
      <point x="667" y="734"/>
      <point x="666" y="518"/>
      <point x="666" y="274" type="curve"/>
    </contour>
  </outline>
</glyph>
<glyph name="sterling" format="1">
  <advance width="1385"/>
  <unicode hex="00A3"/>
  <outline>
    <contour>
      <point x="195" y="0" type="curve" name="hr00"/>
      <point x="1141" y="0" type="line" smooth="yes"/>
      <point x="1229" y="0"/>
      <point x="1316" y="75"/>
      <point x="1316" y="171" type="curve"/>
      <point x="549" y="171" type="line"/>
      <point x="611" y="182"/>
      <point x="696" y="278"/>
      <point x="696" y="416" type="curve" smooth="yes"/>
      <point x="696" y="537" type="line"/>
      <point x="934" y="537" type="line" smooth="yes"/>
      <point x="1022" y="537"/>
      <point x="1109" y="612"/>
      <point x="1109" y="708" type="curve"/>
      <point x="696" y="708" type="line"/>
      <point x="696" y="1186" type="line"/>
      <point x="935" y="1186" type="line"/>
      <point x="935" y="1000" type="line"/>
      <point x="1173" y="1000" type="line"/>
      <point x="1173" y="1091" type="line" smooth="yes"/>
      <point x="1173" y="1233"/>
      <point x="1088" y="1345"/>
      <point x="984" y="1345" type="curve" smooth="yes"/>
      <point x="647" y="1345" type="line" smooth="yes"/>
      <point x="543" y="1345"/>
      <point x="458" y="1233"/>
      <point x="458" y="1091" type="curve" smooth="yes"/>
      <point x="458" y="708" type="line"/>
      <point x="397" y="708" type="line" smooth="yes"/>
      <point x="307" y="708"/>
      <point x="231" y="629"/>
      <point x="222" y="537" type="curve"/>
      <point x="458" y="537" type="line"/>
      <point x="458" y="171" type="line"/>
      <point x="370" y="171" type="line" smooth="yes"/>
      <point x="280" y="171"/>
      <point x="204" y="92"/>
    </contour>
  </outline>
</glyph>
<glyph name="currency" format="1">
  <advance width="1385"/>
  <unicode hex="00A4"/>
  <outline>
    <contour>
      <point x="148" y="126" type="line" name="hr00"/>
      <point x="240" y="39" type="line"/>
      <point x="405" y="191" type="line"/>
      <point x="435" y="166"/>
      <point x="469" y="152"/>
      <point x="507" y="152" type="curve" smooth="yes"/>
      <point x="959" y="152" type="line" smooth="yes"/>
      <point x="995" y="152"/>
      <point x="1030" y="166"/>
      <point x="1059" y="191" type="curve"/>
      <point x="1225" y="39" type="line"/>
      <point x="1317" y="126" type="line"/>
      <point x="1132" y="304" type="line"/>
      <point x="1142" y="335"/>
      <point x="1148" y="369"/>
      <point x="1148" y="406" type="curve" smooth="yes"/>
      <point x="1148" y="790" type="line" smooth="yes"/>
      <point x="1148" y="823"/>
      <point x="1143" y="854"/>
      <point x="1134" y="883" type="curve"/>
      <point x="1317" y="1059" type="line"/>
      <point x="1225" y="1146" type="line"/>
      <point x="1066" y="1000" type="line"/>
      <point x="1035" y="1028"/>
      <point x="997" y="1045"/>
      <point x="958" y="1045" type="curve" smooth="yes"/>
      <point x="507" y="1045" type="line" smooth="yes"/>
      <point x="466" y="1045"/>
      <point x="429" y="1028"/>
      <point x="398" y="1000" type="curve"/>
      <point x="240" y="1146" type="line"/>
      <point x="148" y="1059" type="line"/>
      <point x="330" y="884" type="line"/>
      <point x="321" y="855"/>
      <point x="317" y="823"/>
      <point x="317" y="790" type="curve" smooth="yes"/>
      <point x="317" y="406" type="line" smooth="yes"/>
      <point x="317" y="370"/>
      <point x="322" y="335"/>
      <point x="333" y="304" type="curve"/>
    </contour>
    <contour>
      <point x="555" y="325" type="line"/>
      <point x="555" y="874" type="line"/>
      <point x="910" y="874" type="line"/>
      <point x="910" y="325" type="line"/>
    </contour>
  </outline>
</glyph>
<glyph name="dieresis" format="1">
  <advance width="1167"/>
  <unicode hex="00A8"/>
  <outline>
    <contour>
      <point x="851" y="1289" type="curve" smooth="yes" name="hr00"/>
      <point x="943" y="1289"/>
      <point x="1017" y="1357"/>
      <point x="1017" y="1457" type="curve" smooth="yes"/>
      <point x="1017" y="1556"/>
      <point x="943" y="1630"/>
      <point x="851" y="1630" type="curve" smooth="yes"/>
      <point x="754" y="1630"/>
      <point x="684" y="1556"/>
      <point x="684" y="1457" type="curve" smooth="yes"/>
      <point x="684" y="1357"/>
      <point x="754" y="1289"/>
    </contour>
    <contour>
      <point x="317" y="1289" type="curve" smooth="yes"/>
      <point x="409" y="1289"/>
      <point x="483" y="1357"/>
      <point x="483" y="1457" type="curve" smooth="yes"/>
      <point x="483" y="1556"/>
      <point x="409" y="1630"/>
      <point x="317" y="1630" type="curve" smooth="yes"/>
      <point x="220" y="1630"/>
      <point x="150" y="1556"/>
      <point x="150" y="1457" type="curve" smooth="yes"/>
      <point x="150" y="1357"/>
      <point x="220" y="1289"/>
    </contour>
    <contour>
      <point x="573" y="1530" type="move" name="_top"/>
    </contour>
  </outline>
</glyph>
<glyph name="ordfeminine" format="1">
  <advance width="1077"/>
  <unicode hex="00AA"/>
  <outline>
    <contour>
      <point x="320" y="492" type="curve" smooth="yes" name="hr00"/>
      <point x="576" y="492" type="line" smooth="yes"/>
      <point x="621" y="492"/>
      <point x="664" y="525"/>
      <point x="689" y="576" type="curve"/>
      <point x="715" y="525"/>
      <point x="758" y="492"/>
      <point x="803" y="492" type="curve"/>
      <point x="926" y="492" type="line" smooth="yes"/>
      <point x="986" y="492"/>
      <point x="1038" y="544"/>
      <point x="1045" y="609" type="curve"/>
      <point x="887" y="609" type="line"/>
      <point x="887" y="1206" type="line"/>
      <point x="337" y="1206" type="line" smooth="yes"/>
      <point x="254" y="1206"/>
      <point x="190" y="1123"/>
      <point x="190" y="1013" type="curve" smooth="yes"/>
      <point x="190" y="663" type="line" smooth="yes"/>
      <point x="190" y="569"/>
      <point x="248" y="492"/>
    </contour>
    <contour>
      <point x="392" y="609" type="line"/>
      <point x="392" y="1089" type="line"/>
      <point x="685" y="1089" type="line"/>
      <point x="685" y="609" type="line"/>
    </contour>
    <component base="period" xScale="0.72997" yScale="0.72997" xOffset="275" yOffset="61"/>
  </outline>
</glyph>
<glyph name="guillemotleft" format="1">
  <advance width="1311"/>
  <unicode hex="00AB"/>
  <outline>
    <contour>
      <point x="706" y="393" type="curve" smooth="yes" name="hr00"/>
      <point x="1022" y="31" type="line"/>
      <point x="1181" y="31" type="line"/>
      <point x="935" y="530" type="line"/>
      <point x="1181" y="1029" type="line"/>
      <point x="1022" y="1029" type="line"/>
      <point x="706" y="664" type="line" smooth="yes"/>
      <point x="673" y="625"/>
      <point x="647" y="582"/>
      <point x="647" y="529" type="curve" smooth="yes"/>
      <point x="647" y="474"/>
      <point x="673" y="430"/>
    </contour>
    <contour>
      <point x="159" y="393" type="curve" smooth="yes"/>
      <point x="475" y="31" type="line"/>
      <point x="634" y="31" type="line"/>
      <point x="388" y="530" type="line"/>
      <point x="634" y="1029" type="line"/>
      <point x="475" y="1029" type="line"/>
      <point x="159" y="664" type="line" smooth="yes"/>
      <point x="126" y="625"/>
      <point x="100" y="582"/>
      <point x="100" y="529" type="curve" smooth="yes"/>
      <point x="100" y="474"/>
      <point x="126" y="430"/>
    </contour>
  </outline>
</glyph>
<glyph name="logicalnot" format="1">
  <advance width="1285"/>
  <unicode hex="00AC"/>
  <outline>
    <contour>
      <point x="130" y="692" type="line" name="hr00"/>
      <point x="954" y="692" type="line"/>
      <point x="954" y="293" type="line"/>
      <point x="1131" y="293" type="line"/>
      <point x="1131" y="868" type="line"/>
      <point x="130" y="868" type="line"/>
    </contour>
  </outline>
</glyph>
<glyph name="degree" format="1">
  <advance width="950"/>
  <unicode hex="00B0"/>
  <outline>
    <contour>
      <point x="475" y="557" type="curve" smooth="yes" name="hr00"/>
      <point x="671" y="557"/>
      <point x="830" y="717"/>
      <point x="830" y="914" type="curve" smooth="yes"/>
      <point x="830" y="1111"/>
      <point x="671" y="1269"/>
      <point x="475" y="1269" type="curve" smooth="yes"/>
      <point x="278" y="1269"/>
      <point x="120" y="1111"/>
      <point x="120" y="914" type="curve" smooth="yes"/>
      <point x="120" y="717"/>
      <point x="278" y="557"/>
    </contour>
    <contour>
      <point x="475" y="724" type="curve" smooth="yes"/>
      <point x="370" y="724"/>
      <point x="285" y="809"/>
      <point x="285" y="914" type="curve" smooth="yes"/>
      <point x="285" y="1017"/>
      <point x="370" y="1103"/>
      <point x="475" y="1103" type="curve" smooth="yes"/>
      <point x="575" y="1103"/>
      <point x="666" y="1017"/>
      <point x="666" y="914" type="curve" smooth="yes"/>
      <point x="666" y="809"/>
      <point x="575" y="724"/>
    </contour>
  </outline>
</glyph>
<glyph name="plusminus" format="1">
  <advance width="1285"/>
  <unicode hex="00B1"/>
  <outline>
    <contour>
      <point x="250" y="643" type="line" name="hr00"/>
      <point x="599" y="643" type="line"/>
      <point x="599" y="355" type="line"/>
      <point x="776" y="355" type="line"/>
      <point x="776" y="643" type="line"/>
      <point x="1124" y="643" type="line"/>
      <point x="1124" y="819" type="line"/>
      <point x="776" y="819" type="line"/>
      <point x="776" y="1117" type="line"/>
      <point x="599" y="1117" type="line"/>
      <point x="599" y="819" type="line"/>
      <point x="250" y="819" type="line"/>
    </contour>
    <contour>
      <point x="250" y="35" type="line"/>
      <point x="1124" y="35" type="line"/>
      <point x="1124" y="211" type="line"/>
      <point x="250" y="211" type="line"/>
    </contour>
  </outline>
</glyph>
<glyph name="two.superior" format="1">
  <advance width="1113"/>
  <unicode hex="00B2"/>
  <outline>
    <contour>
      <point x="225" y="454" type="line" name="hr00"/>
      <point x="967" y="454" type="line"/>
      <point x="967" y="562" type="line"/>
      <point x="447" y="562" type="line"/>
      <point x="447" y="677" type="line"/>
      <point x="878" y="846" type="line"/>
      <point x="930" y="867"/>
      <point x="967" y="924"/>
      <point x="967" y="991" type="curve"/>
      <point x="967" y="1091" type="line" smooth="yes"/>
      <point x="967" y="1180"/>
      <point x="900" y="1250"/>
      <point x="818" y="1250" type="curve" smooth="yes"/>
      <point x="373" y="1250" type="line"/>
      <point x="290" y="1250"/>
      <point x="225" y="1180"/>
      <point x="225" y="1091" type="curve" smooth="yes"/>
      <point x="225" y="1020" type="line"/>
      <point x="447" y="1020" type="line"/>
      <point x="447" y="1141" type="line"/>
      <point x="745" y="1141" type="line"/>
      <point x="745" y="975" type="line"/>
      <point x="304" y="805" type="line" smooth="yes"/>
      <point x="256" y="786"/>
      <point x="225" y="728"/>
      <point x="225" y="661" type="curve"/>
    </contour>
  </outline>
</glyph>
<glyph name="three.superior" format="1">
  <advance width="1113"/>
  <unicode hex="00B3"/>
  <outline>
    <contour>
      <point x="374" y="454" type="curve" name="hr00"/>
      <point x="797" y="454" type="line"/>
      <point x="879" y="454"/>
      <point x="946" y="526"/>
      <point x="946" y="614" type="curve"/>
      <point x="946" y="702" type="line"/>
      <point x="946" y="771"/>
      <point x="892" y="834"/>
      <point x="815" y="863" type="curve"/>
      <point x="892" y="893"/>
      <point x="946" y="957"/>
      <point x="946" y="1026" type="curve"/>
      <point x="946" y="1090" type="line"/>
      <point x="946" y="1179"/>
      <point x="879" y="1249"/>
      <point x="797" y="1249" type="curve"/>
      <point x="374" y="1250" type="line"/>
      <point x="292" y="1250"/>
      <point x="226" y="1180"/>
      <point x="226" y="1091" type="curve"/>
      <point x="226" y="1044" type="line"/>
      <point x="437" y="1044" type="line"/>
      <point x="437" y="1141" type="line"/>
      <point x="734" y="1141" type="line"/>
      <point x="734" y="915" type="line"/>
      <point x="511" y="915" type="line"/>
      <point x="511" y="807" type="line"/>
      <point x="734" y="807" type="line"/>
      <point x="734" y="564" type="line"/>
      <point x="437" y="564" type="line"/>
      <point x="437" y="661" type="line"/>
      <point x="226" y="661" type="line"/>
      <point x="226" y="614" type="line"/>
      <point x="226" y="526"/>
      <point x="292" y="454"/>
    </contour>
  </outline>
</glyph>
<glyph name="uni00B5" format="1">
  <advance width="1285"/>
  <unicode hex="00B5"/>
  <outline>
    <contour>
      <point x="408" y="131" type="line" name="hr00"/>
      <point x="445" y="65"/>
      <point x="506" y="0"/>
      <point x="578" y="0" type="curve" smooth="yes"/>
      <point x="664" y="0" type="line" smooth="yes"/>
      <point x="724" y="0"/>
      <point x="782" y="65"/>
      <point x="821" y="131" type="curve"/>
      <point x="821" y="0" type="line"/>
      <point x="1055" y="0" type="line" smooth="yes"/>
      <point x="1143" y="0"/>
      <point x="1220" y="77"/>
      <point x="1230" y="171" type="curve"/>
      <point x="1059" y="171" type="line"/>
      <point x="1059" y="1047" type="line"/>
      <point x="821" y="1047" type="line"/>
      <point x="821" y="171" type="line"/>
      <point x="408" y="171" type="line"/>
      <point x="408" y="1047" type="line"/>
      <point x="182" y="1047" type="line"/>
      <point x="182" y="-541" type="line"/>
      <point x="221" y="-541" type="line" smooth="yes"/>
      <point x="325" y="-541"/>
      <point x="408" y="-425"/>
      <point x="408" y="-285" type="curve" smooth="yes"/>
    </contour>
  </outline>
</glyph>
<glyph name="paragraph" format="1">
  <advance width="1504"/>
  <unicode hex="00B6"/>
  <outline>
    <contour>
      <point x="394" y="249" type="curve" smooth="yes" name="hr00"/>
      <point x="585" y="249" type="line"/>
      <point x="585" y="-270" type="line"/>
      <point x="601" y="-270" type="line" smooth="yes"/>
      <point x="711" y="-270"/>
      <point x="804" y="-154"/>
      <point x="804" y="-14" type="curve" smooth="yes"/>
      <point x="804" y="1344" type="line"/>
      <point x="1016" y="1344" type="line"/>
      <point x="1016" y="-265" type="line"/>
      <point x="1032" y="-265" type="line" smooth="yes"/>
      <point x="1142" y="-265"/>
      <point x="1234" y="-149"/>
      <point x="1234" y="-9" type="curve" smooth="yes"/>
      <point x="1234" y="1344" type="line"/>
      <point x="1302" y="1344" type="line" smooth="yes"/>
      <point x="1390" y="1344"/>
      <point x="1467" y="1421"/>
      <point x="1477" y="1515" type="curve"/>
      <point x="394" y="1515" type="line" smooth="yes"/>
      <point x="290" y="1515"/>
      <point x="204" y="1403"/>
      <point x="204" y="1261" type="curve" smooth="yes"/>
      <point x="204" y="501" type="line" smooth="yes"/>
      <point x="204" y="361"/>
      <point x="290" y="249"/>
    </contour>
  </outline>
</glyph>
<glyph name="cedilla" format="1">
  <advance width="949"/>
  <unicode hex="00B8"/>
  <outline>
    <contour>
      <point x="388" y="0" type="line" name="hr00"/>
      <point x="388" y="-222" type="line"/>
      <point x="594" y="-222" type="line"/>
      <point x="594" y="-338" type="line"/>
      <point x="325" y="-338" type="line" smooth="yes"/>
      <point x="236" y="-338"/>
      <point x="160" y="-415"/>
      <point x="150" y="-508" type="curve"/>
      <point x="635" y="-508" type="line" smooth="yes"/>
      <point x="725" y="-508"/>
      <point x="799" y="-415"/>
      <point x="799" y="-303" type="curve" smooth="yes"/>
      <point x="799" y="-189"/>
      <point x="725" y="-96"/>
      <point x="635" y="-96" type="curve" smooth="yes"/>
      <point x="508" y="-96" type="line"/>
      <point x="508" y="0" type="line"/>
    </contour>
    <contour>
      <point x="453" y="-15" type="move" name="_btm"/>
    </contour>
  </outline>
</glyph>
<glyph name="ordmasculine" format="1">
  <advance width="1077"/>
  <unicode hex="00BA"/>
  <outline>
    <contour>
      <point x="320" y="492" type="curve" smooth="yes" name="hr00"/>
      <point x="740" y="492" type="line" smooth="yes"/>
      <point x="823" y="492"/>
      <point x="887" y="575"/>
      <point x="887" y="685" type="curve" smooth="yes"/>
      <point x="887" y="1035" type="line" smooth="yes"/>
      <point x="887" y="1129"/>
      <point x="829" y="1206"/>
      <point x="757" y="1206" type="curve" smooth="yes"/>
      <point x="337" y="1206" type="line" smooth="yes"/>
      <point x="254" y="1206"/>
      <point x="190" y="1123"/>
      <point x="190" y="1013" type="curve"/>
      <point x="190" y="663" type="line" smooth="yes"/>
      <point x="190" y="569"/>
      <point x="248" y="492"/>
    </contour>
    <contour>
      <point x="392" y="609" type="line"/>
      <point x="392" y="1089" type="line"/>
      <point x="685" y="1089" type="line"/>
      <point x="685" y="609" type="line"/>
    </contour>
    <component base="period" xScale="0.72997" yScale="0.72997" xOffset="275" yOffset="61"/>
  </outline>
</glyph>
<glyph name="guillemotright" format="1">
  <advance width="1311"/>
  <unicode hex="00BB"/>
  <outline>
    <contour>
      <point x="677" y="31" type="line" name="hr00"/>
      <point x="836" y="31" type="line"/>
      <point x="1152" y="393" type="line" smooth="yes"/>
      <point x="1185" y="430"/>
      <point x="1211" y="474"/>
      <point x="1211" y="529" type="curve" smooth="yes"/>
      <point x="1211" y="582"/>
      <point x="1185" y="625"/>
      <point x="1152" y="664" type="curve" smooth="yes"/>
      <point x="836" y="1029" type="line"/>
      <point x="677" y="1029" type="line"/>
      <point x="923" y="530" type="line"/>
    </contour>
    <contour>
      <point x="130" y="31" type="line"/>
      <point x="289" y="31" type="line"/>
      <point x="605" y="393" type="line" smooth="yes"/>
      <point x="638" y="430"/>
      <point x="664" y="474"/>
      <point x="664" y="529" type="curve" smooth="yes"/>
      <point x="664" y="582"/>
      <point x="638" y="625"/>
      <point x="605" y="664" type="curve" smooth="yes"/>
      <point x="289" y="1029" type="line"/>
      <point x="130" y="1029" type="line"/>
      <point x="376" y="530" type="line"/>
    </contour>
  </outline>
</glyph>
<glyph name="questiondown" format="1">
  <advance width="1113"/>
  <unicode hex="00BF"/>
  <outline>
    <contour>
      <point x="589" y="1190" type="curve" smooth="yes" name="hr01"/>
      <point x="681" y="1190"/>
      <point x="758" y="1265"/>
      <point x="758" y="1358" type="curve" smooth="yes"/>
      <point x="758" y="1451"/>
      <point x="682" y="1527"/>
      <point x="589" y="1527" type="curve" smooth="yes"/>
      <point x="496" y="1527"/>
      <point x="421" y="1451"/>
      <point x="421" y="1358" type="curve" smooth="yes"/>
      <point x="421" y="1265"/>
      <point x="496" y="1190"/>
    </contour>
    <contour>
      <point x="113" y="254" type="line" smooth="yes"/>
      <point x="113" y="113"/>
      <point x="198" y="0"/>
      <point x="303" y="0" type="curve" smooth="yes"/>
      <point x="811" y="0" type="line" smooth="yes"/>
      <point x="917" y="0"/>
      <point x="1001" y="113"/>
      <point x="1001" y="254" type="curve" smooth="yes" name="hr02"/>
      <point x="1001" y="385" type="line"/>
      <point x="762" y="385" type="line"/>
      <point x="762" y="172" type="line"/>
      <point x="352" y="172" type="line"/>
      <point x="352" y="513" type="line"/>
      <point x="602" y="640" type="line" smooth="yes"/>
      <point x="668" y="674"/>
      <point x="710" y="768"/>
      <point x="710" y="871" type="curve" smooth="yes"/>
      <point x="710" y="995" type="line"/>
      <point x="472" y="995" type="line"/>
      <point x="472" y="821" type="line"/>
      <point x="229" y="697" type="line" smooth="yes"/>
      <point x="162" y="663"/>
      <point x="113" y="564"/>
      <point x="113" y="462" type="curve" smooth="yes"/>
    </contour>
  </outline>
</glyph>
<glyph name="AE" format="1">
  <advance width="1834"/>
  <unicode hex="00C6"/>
  <outline>
    <contour>
      <point x="163" y="0" type="line" name="hr00"/>
      <point x="399" y="0" type="line"/>
      <point x="425" y="166"/>
      <point x="453" y="338"/>
      <point x="480" y="512" type="curve"/>
      <point x="882" y="512" type="line"/>
      <point x="882" y="252" type="line" smooth="yes"/>
      <point x="882" y="113"/>
      <point x="966" y="0"/>
      <point x="1072" y="0" type="curve" smooth="yes"/>
      <point x="1622" y="0" type="line" smooth="yes"/>
      <point x="1710" y="0"/>
      <point x="1787" y="77"/>
      <point x="1797" y="171" type="curve"/>
      <point x="1122" y="171" type="line"/>
      <point x="1122" y="512" type="line"/>
      <point x="1548" y="512" type="line"/>
      <point x="1548" y="673" type="line"/>
      <point x="1122" y="673" type="line"/>
      <point x="1122" y="1347" type="line"/>
      <point x="1678" y="1347" type="line"/>
      <point x="1678" y="1516" type="line"/>
      <point x="586" y="1516" type="line" smooth="yes"/>
      <point x="500" y="1516"/>
      <point x="410" y="1437"/>
      <point x="391" y="1327" type="curve" smooth="yes"/>
      <point x="278" y="673" type="line"/>
      <point x="175" y="673" type="line" smooth="yes"/>
      <point x="90" y="673"/>
      <point x="18" y="600"/>
      <point x="10" y="512" type="curve"/>
      <point x="251" y="512" type="line"/>
    </contour>
    <contour>
      <point x="506" y="673" type="line"/>
      <point x="613" y="1347" type="line"/>
      <point x="882" y="1347" type="line"/>
      <point x="882" y="673" type="line"/>
    </contour>
    <contour>
      <point x="898" y="1770" type="move" name="top"/>
    </contour>
  </outline>
</glyph>
<glyph name="germandbls" format="1">
  <advance width="1231"/>
  <unicode hex="00DF"/>
  <outline>
    <contour>
      <point x="192" y="0" type="line" name="hr01"/>
      <point x="430" y="0" type="line"/>
      <point x="430" y="1423" type="line"/>
      <point x="765" y="1423" type="line" name="hr02"/>
      <point x="765" y="977" type="line"/>
      <point x="638" y="977" type="line"/>
      <point x="638" y="806" type="line"/>
      <point x="858" y="806" type="line" name="hr03"/>
      <point x="858" y="171" type="line"/>
      <point x="777" y="171" type="line" smooth="yes"/>
      <point x="687" y="171"/>
      <point x="611" y="92"/>
      <point x="602" y="0" type="curve"/>
      <point x="1074" y="0" type="line" smooth="yes"/>
      <point x="1162" y="0"/>
      <point x="1241" y="75"/>
      <point x="1249" y="171" type="curve"/>
      <point x="952" y="171" type="line"/>
      <point x="1014" y="182"/>
      <point x="1100" y="278"/>
      <point x="1100" y="416" type="curve" smooth="yes"/>
      <point x="1100" y="645" type="line" smooth="yes"/>
      <point x="1100" y="746"/>
      <point x="1036" y="879"/>
      <point x="894" y="909" type="curve"/>
      <point x="966" y="959"/>
      <point x="1007" y="1041"/>
      <point x="1007" y="1131" type="curve" smooth="yes" name="hr04"/>
      <point x="1007" y="1339" type="line" smooth="yes"/>
      <point x="1007" y="1481"/>
      <point x="908" y="1591"/>
      <point x="802" y="1591" type="curve" smooth="yes"/>
      <point x="382" y="1591" type="line" smooth="yes"/>
      <point x="277" y="1591"/>
      <point x="192" y="1477"/>
      <point x="192" y="1336" type="curve"/>
    </contour>
  </outline>
</glyph>
<glyph name="ae" format="1">
  <advance width="1978"/>
  <unicode hex="00E6"/>
  <outline>
    <contour>
      <point x="192" y="252" type="line" smooth="yes" name="hr01"/>
      <point x="192" y="113"/>
      <point x="284" y="0"/>
      <point x="390" y="0" type="curve" smooth="yes"/>
      <point x="535" y="0" type="line" smooth="yes"/>
      <point x="567" y="0"/>
      <point x="599" y="12"/>
      <point x="623" y="33" type="curve" smooth="yes"/>
      <point x="875" y="251" type="line"/>
      <point x="876" y="112"/>
      <point x="960" y="0"/>
      <point x="1065" y="0" type="curve" smooth="yes"/>
      <point x="1693" y="0" type="line" smooth="yes"/>
      <point x="1781" y="0"/>
      <point x="1858" y="77"/>
      <point x="1868" y="171" type="curve"/>
      <point x="1114" y="171" type="line"/>
      <point x="1114" y="460" type="line"/>
      <point x="1816" y="460" type="line"/>
      <point x="1816" y="793" type="line" smooth="yes"/>
      <point x="1816" y="934"/>
      <point x="1730" y="1047"/>
      <point x="1626" y="1047" type="curve" smooth="yes" name="hr02"/>
      <point x="1201" y="1047" type="line" smooth="yes"/>
      <point x="1126" y="1047"/>
      <point x="1032" y="959"/>
      <point x="1001" y="876" type="curve"/>
      <point x="925" y="1048" type="line" name="hr03"/>
      <point x="409" y="1048" type="line" smooth="yes"/>
      <point x="286" y="1048"/>
      <point x="192" y="926"/>
      <point x="192" y="765" type="curve" smooth="yes"/>
    </contour>
    <contour>
      <point x="1114" y="600" type="line"/>
      <point x="1114" y="876" type="line"/>
      <point x="1577" y="876" type="line"/>
      <point x="1577" y="600" type="line"/>
    </contour>
    <contour>
      <point x="432" y="172" type="line"/>
      <point x="432" y="876" type="line"/>
      <point x="875" y="876" type="line"/>
      <point x="875" y="453" type="line"/>
      <point x="525" y="172" type="line"/>
    </contour>
    <contour>
      <point x="1000" y="1530" type="move" name="top"/>
    </contour>
  </outline>
</glyph>
<glyph name="oslash" format="1">
  <advance width="1286"/>
  <unicode hex="00F8"/>
  <outline>
    <contour>
      <point x="205" y="-177" type="line" name="hr01"/>
      <point x="356" y="-177" type="line"/>
      <point x="447" y="0" type="line"/>
      <point x="903" y="0" type="line" smooth="yes"/>
      <point x="1007" y="0"/>
      <point x="1093" y="113"/>
      <point x="1093" y="252" type="curve" smooth="yes"/>
      <point x="1094" y="793" type="line" smooth="yes"/>
      <point x="1094" y="899"/>
      <point x="1046" y="988"/>
      <point x="978" y="1027" type="curve"/>
      <point x="1079" y="1223" type="line"/>
      <point x="928" y="1223" type="line" name="hr02"/>
      <point x="837" y="1047" type="line"/>
      <point x="380" y="1047" type="line" smooth="yes"/>
      <point x="277" y="1047"/>
      <point x="192" y="935"/>
      <point x="192" y="793" type="curve" smooth="yes" name="hr03"/>
      <point x="192" y="252" type="line" smooth="yes"/>
      <point x="192" y="147"/>
      <point x="239" y="58"/>
      <point x="307" y="20" type="curve"/>
    </contour>
    <contour>
      <point x="421" y="241" type="line"/>
      <point x="421" y="876" type="line"/>
      <point x="748" y="876" type="line"/>
    </contour>
    <contour>
      <point x="536" y="171" type="line"/>
      <point x="865" y="808" type="line"/>
      <point x="865" y="171" type="line"/>
    </contour>
  </outline>
</glyph>
<glyph name="Hbar" format="1">
  <advance width="1457"/>
  <unicode hex="0126"/>
  <outline>
    <contour>
      <point x="230" y="0" type="line" name="hr00"/>
      <point x="468" y="0" type="line"/>
      <point x="468" y="565" type="line"/>
      <point x="987" y="565" type="line"/>
      <point x="987" y="0" type="line"/>
      <point x="1227" y="0" type="line"/>
      <point x="1227" y="1516" type="line"/>
      <point x="987" y="1516" type="line"/>
      <point x="987" y="736" type="line"/>
      <point x="468" y="736" type="line"/>
      <point x="468" y="1516" type="line"/>
      <point x="230" y="1516" type="line"/>
    </contour>
    <contour>
      <point x="42" y="1022" type="curve"/>
      <point x="1241" y="1022" type="line"/>
      <point x="1330" y="1022"/>
      <point x="1406" y="1099"/>
      <point x="1415" y="1193" type="curve"/>
      <point x="217" y="1193" type="line"/>
      <point x="128" y="1193"/>
      <point x="52" y="1115"/>
    </contour>
  </outline>
</glyph>
<glyph name="hbar" format="1">
  <advance width="1247"/>
  <unicode hex="0127"/>
  <outline>
    <contour>
      <point x="192" y="0" type="line" name="hr00"/>
      <point x="431" y="0" type="line"/>
      <point x="431" y="876" type="line"/>
      <point x="815" y="876" type="line"/>
      <point x="815" y="254" type="line" smooth="yes"/>
      <point x="815" y="114"/>
      <point x="901" y="0"/>
      <point x="1006" y="0" type="curve" smooth="yes"/>
      <point x="1095" y="0" type="line" smooth="yes"/>
      <point x="1181" y="0"/>
      <point x="1258" y="77"/>
      <point x="1268" y="171" type="curve"/>
      <point x="1054" y="171" type="line"/>
      <point x="1054" y="793" type="line" smooth="yes"/>
      <point x="1054" y="934"/>
      <point x="967" y="1047"/>
      <point x="864" y="1047" type="curve" smooth="yes"/>
      <point x="591" y="1047" type="line" smooth="yes"/>
      <point x="526" y="1047"/>
      <point x="468" y="1004"/>
      <point x="431" y="933" type="curve"/>
      <point x="431" y="1237" type="line"/>
      <point x="843" y="1237" type="line"/>
      <point x="843" y="1391" type="line"/>
      <point x="431" y="1391" type="line"/>
      <point x="431" y="1590" type="line"/>
      <point x="192" y="1590" type="line"/>
      <point x="192" y="1391" type="line"/>
      <point x="1" y="1391" type="line"/>
      <point x="1" y="1237" type="line"/>
      <point x="192" y="1237" type="line"/>
    </contour>
  </outline>
</glyph>
<glyph name="IJ" format="1">
  <advance width="1285"/>
  <unicode hex="0132"/>
  <outline>
    <contour>
      <point x="260" y="0" type="curve" name="hr00"/>
      <point x="961" y="0" type="line" smooth="yes"/>
      <point x="1066" y="0"/>
      <point x="1152" y="114"/>
      <point x="1152" y="254" type="curve" smooth="yes"/>
      <point x="1152" y="1516" type="line"/>
      <point x="913" y="1516" type="line"/>
      <point x="913" y="171" type="line"/>
      <point x="434" y="171" type="line" smooth="yes"/>
      <point x="346" y="171"/>
      <point x="269" y="94"/>
    </contour>
    <contour>
      <point x="388" y="469" type="curve" smooth="yes"/>
      <point x="590" y="469" type="line" smooth="yes"/>
      <point x="678" y="469"/>
      <point x="755" y="546"/>
      <point x="764" y="640" type="curve"/>
      <point x="436" y="640" type="line"/>
      <point x="436" y="1516" type="line"/>
      <point x="197" y="1516" type="line"/>
      <point x="197" y="723" type="line" smooth="yes"/>
      <point x="197" y="583"/>
      <point x="283" y="469"/>
    </contour>
  </outline>
</glyph>
<glyph name="ldot" format="1">
  <advance width="863"/>
  <unicode hex="0140"/>
  <outline>
    <contour>
      <point x="561" y="751" type="curve" smooth="yes" name="hr00"/>
      <point x="561" y="651"/>
      <point x="631" y="583"/>
      <point x="728" y="583" type="curve" smooth="yes"/>
      <point x="820" y="583"/>
      <point x="894" y="651"/>
      <point x="894" y="751" type="curve" smooth="yes"/>
      <point x="894" y="850"/>
      <point x="820" y="924"/>
      <point x="728" y="924" type="curve" smooth="yes"/>
      <point x="631" y="924"/>
      <point x="561" y="850"/>
    </contour>
    <component base="l"/>
  </outline>
</glyph>
<glyph name="lslash" format="1">
  <advance width="609"/>
  <unicode hex="0142"/>
  <outline>
    <contour>
      <point x="186" y="254" type="line" smooth="yes" name="hr00"/>
      <point x="186" y="114"/>
      <point x="272" y="0"/>
      <point x="377" y="0" type="curve" smooth="yes"/>
      <point x="461" y="0" type="line" smooth="yes"/>
      <point x="546" y="0"/>
      <point x="622" y="64"/>
      <point x="638" y="171" type="curve"/>
      <point x="425" y="171" type="line"/>
      <point x="425" y="836" type="line"/>
      <point x="640" y="910" type="line"/>
      <point x="640" y="1081" type="line"/>
      <point x="425" y="1007" type="line"/>
      <point x="425" y="1591" type="line"/>
      <point x="186" y="1591" type="line"/>
      <point x="186" y="924" type="line"/>
      <point x="68" y="884" type="line"/>
      <point x="68" y="713" type="line"/>
      <point x="186" y="753" type="line"/>
    </contour>
  </outline>
</glyph>
<glyph name="eng" format="1">
  <advance width="1234"/>
  <unicode hex="014B"/>
  <outline>
    <contour>
      <point x="220" y="0" type="line" name="hr01"/>
      <point x="459" y="0" type="line"/>
      <point x="459" y="430" type="line"/>
      <point x="879" y="862" type="line"/>
      <point x="879" y="-368" type="line"/>
      <point x="733" y="-368" type="line"/>
      <point x="733" y="-541" type="line"/>
      <point x="929" y="-541" type="line" smooth="yes"/>
      <point x="1034" y="-541"/>
      <point x="1120" y="-425"/>
      <point x="1120" y="-285" type="curve" smooth="yes" name="hr02"/>
      <point x="1120" y="794" type="line" smooth="yes"/>
      <point x="1120" y="935"/>
      <point x="1024" y="1048"/>
      <point x="917" y="1048" type="curve" smooth="yes"/>
      <point x="853" y="1048"/>
      <point x="810" y="1020"/>
      <point x="768" y="971" type="curve"/>
      <point x="459" y="651" type="line"/>
      <point x="459" y="1047" type="line"/>
      <point x="220" y="1047" type="line"/>
    </contour>
  </outline>
</glyph>
<glyph name="OE" format="1">
  <advance width="1862"/>
  <unicode hex="0152"/>
  <outline>
    <contour>
      <point x="200" y="252" type="line" smooth="yes" name="hr00"/>
      <point x="200" y="113"/>
      <point x="285" y="0"/>
      <point x="388" y="0" type="curve" smooth="yes"/>
      <point x="871" y="0" type="line" smooth="yes"/>
      <point x="936" y="0"/>
      <point x="999" y="48"/>
      <point x="1037" y="124" type="curve"/>
      <point x="1075" y="48"/>
      <point x="1138" y="0"/>
      <point x="1203" y="0" type="curve" smooth="yes"/>
      <point x="1650" y="0" type="line" smooth="yes"/>
      <point x="1738" y="0"/>
      <point x="1815" y="77"/>
      <point x="1825" y="171" type="curve"/>
      <point x="1160" y="171" type="line"/>
      <point x="1160" y="594" type="line"/>
      <point x="1606" y="594" type="line"/>
      <point x="1606" y="755" type="line"/>
      <point x="1160" y="755" type="line"/>
      <point x="1160" y="1343" type="line"/>
      <point x="1736" y="1343" type="line"/>
      <point x="1736" y="1516" type="line"/>
      <point x="1209" y="1516" type="line" smooth="yes"/>
      <point x="1144" y="1516"/>
      <point x="1081" y="1468"/>
      <point x="1043" y="1392" type="curve"/>
      <point x="1005" y="1468"/>
      <point x="942" y="1516"/>
      <point x="877" y="1516" type="curve" smooth="yes"/>
      <point x="388" y="1516" type="line" smooth="yes"/>
      <point x="285" y="1516"/>
      <point x="200" y="1404"/>
      <point x="200" y="1262" type="curve" smooth="yes"/>
    </contour>
    <contour>
      <point x="439" y="171" type="line"/>
      <point x="439" y="1343" type="line"/>
      <point x="920" y="1343" type="line"/>
      <point x="920" y="171" type="line"/>
    </contour>
  </outline>
</glyph>
<glyph name="uni015F" format="1">
  <advance width="1266"/>
  <unicode hex="015F"/>
  <outline>
    <contour>
      <point x="571" y="-222" type="line" name="hr00"/>
      <point x="817" y="-222" type="line"/>
      <point x="817" y="-338" type="line"/>
      <point x="548" y="-338" type="line" smooth="yes"/>
      <point x="459" y="-338"/>
      <point x="383" y="-415"/>
      <point x="373" y="-508" type="curve"/>
      <point x="858" y="-508" type="line" smooth="yes"/>
      <point x="948" y="-508"/>
      <point x="1022" y="-415"/>
      <point x="1022" y="-303" type="curve" smooth="yes"/>
      <point x="1022" y="-189"/>
      <point x="948" y="-96"/>
      <point x="858" y="-96" type="curve" smooth="yes"/>
      <point x="573" y="-96" type="line"/>
    </contour>
    <component base="s"/>
  </outline>
</glyph>
<glyph name="Tbar" format="1">
  <advance width="1285"/>
  <unicode hex="0166"/>
  <outline>
    <contour>
      <point x="244" y="689" type="line" name="hr00"/>
      <point x="489" y="689" type="line"/>
      <point x="489" y="0" type="line"/>
      <point x="538" y="0" type="line" smooth="yes"/>
      <point x="641" y="0"/>
      <point x="727" y="114"/>
      <point x="727" y="253" type="curve" smooth="yes"/>
      <point x="727" y="689" type="line"/>
      <point x="1031" y="689" type="line"/>
      <point x="1031" y="850" type="line"/>
      <point x="727" y="850" type="line"/>
      <point x="727" y="1347" type="line"/>
      <point x="1181" y="1347" type="line"/>
      <point x="1181" y="1516" type="line"/>
      <point x="242" y="1516" type="line" smooth="yes"/>
      <point x="139" y="1516"/>
      <point x="53" y="1489"/>
      <point x="53" y="1347" type="curve"/>
      <point x="489" y="1347" type="line"/>
      <point x="489" y="850" type="line"/>
      <point x="244" y="850" type="line"/>
    </contour>
  </outline>
</glyph>
<glyph name="tbar" format="1">
  <advance width="765"/>
  <unicode hex="0167"/>
  <outline>
    <contour>
      <point x="111" y="548" type="line" name="hr00"/>
      <point x="684" y="548" type="line"/>
      <point x="684" y="679" type="line"/>
      <point x="111" y="679" type="line"/>
    </contour>
    <component base="t"/>
  </outline>
</glyph>
<glyph name="uni0180" format="1">
  <advance width="1275"/>
  <unicode hex="0180"/>
  <outline>
    <contour>
      <point x="58" y="1208" type="line"/>
      <point x="697" y="1208" type="line"/>
      <point x="697" y="1374" type="line"/>
      <point x="58" y="1374" type="line"/>
    </contour>
    <component base="b"/>
  </outline>
</glyph>
<glyph name="uni018F" format="1">
  <advance width="1305"/>
  <unicode hex="018F"/>
  <outline>
    <contour>
      <point x="170" y="254" type="line" smooth="yes" name="hr00"/>
      <point x="170" y="112"/>
      <point x="256" y="0"/>
      <point x="360" y="0" type="curve" smooth="yes"/>
      <point x="916" y="0" type="line" smooth="yes"/>
      <point x="1019" y="0"/>
      <point x="1105" y="112"/>
      <point x="1105" y="254" type="curve" smooth="yes"/>
      <point x="1105" y="1264" type="line"/>
      <point x="1105" y="1403"/>
      <point x="1019" y="1516"/>
      <point x="916" y="1516" type="curve" smooth="yes"/>
      <point x="345" y="1516" type="line" smooth="yes"/>
      <point x="257" y="1516"/>
      <point x="180" y="1439"/>
      <point x="170" y="1345" type="curve"/>
      <point x="868" y="1345" type="line"/>
      <point x="868" y="169" type="line"/>
      <point x="408" y="169" type="line"/>
      <point x="408" y="667" type="line"/>
      <point x="914" y="667" type="line"/>
      <point x="914" y="843" type="line"/>
      <point x="170" y="843" type="line"/>
    </contour>
    <contour>
      <point x="631" y="1702" type="move" name="top"/>
    </contour>
    <contour>
      <point x="633" y="-15" type="move" name="btm"/>
    </contour>
    <contour>
      <point x="693" y="1770" type="move" name="top"/>
    </contour>
  </outline>
</glyph>
<glyph name="uni0259" format="1">
  <advance width="1275"/>
  <unicode hex="0259"/>
  <outline>
    <contour>
      <point x="172" y="254" type="line" smooth="yes" name="hr00"/>
      <point x="172" y="113"/>
      <point x="258" y="0"/>
      <point x="362" y="0" type="curve" smooth="yes"/>
      <point x="893" y="0" type="line" smooth="yes"/>
      <point x="998" y="0"/>
      <point x="1083" y="113"/>
      <point x="1083" y="254" type="curve"/>
      <point x="1083" y="793" type="line"/>
      <point x="1083" y="933"/>
      <point x="998" y="1047"/>
      <point x="893" y="1047" type="curve" smooth="yes"/>
      <point x="285" y="1047" type="line" smooth="yes"/>
      <point x="197" y="1047"/>
      <point x="120" y="970"/>
      <point x="110" y="876" type="curve"/>
      <point x="844" y="876" type="line"/>
      <point x="844" y="587" type="line"/>
      <point x="172" y="587" type="line"/>
    </contour>
    <contour>
      <point x="411" y="171" type="line"/>
      <point x="411" y="447" type="line"/>
      <point x="844" y="447" type="line"/>
      <point x="844" y="171" type="line"/>
    </contour>
  </outline>
</glyph>
<glyph name="caron" format="1">
  <advance width="1142"/>
  <unicode hex="02C7"/>
  <outline>
    <contour>
      <point x="570" y="1317" type="curve" smooth="yes" name="hr00"/>
      <point x="622" y="1317"/>
      <point x="673" y="1340"/>
      <point x="727" y="1391" type="curve" smooth="yes"/>
      <point x="992" y="1644" type="line"/>
      <point x="964" y="1683"/>
      <point x="941" y="1709"/>
      <point x="912" y="1750" type="curve"/>
      <point x="799" y="1687"/>
      <point x="681" y="1619"/>
      <point x="570" y="1558" type="curve"/>
      <point x="234" y="1750" type="line"/>
      <point x="202" y="1708"/>
      <point x="183" y="1687"/>
      <point x="150" y="1644" type="curve"/>
      <point x="415" y="1391" type="line" smooth="yes"/>
      <point x="469" y="1339"/>
      <point x="524" y="1317"/>
    </contour>
    <contour>
      <point x="553" y="1530" type="move" name="_top"/>
    </contour>
  </outline>
</glyph>
<glyph name="ring" format="1">
  <advance width="877"/>
  <unicode hex="02DA"/>
  <outline>
    <contour>
      <point x="438" y="1207" type="curve" smooth="yes" name="hr00"/>
      <point x="598" y="1207"/>
      <point x="727" y="1336"/>
      <point x="727" y="1496" type="curve" smooth="yes"/>
      <point x="727" y="1654"/>
      <point x="598" y="1784"/>
      <point x="438" y="1784" type="curve" smooth="yes"/>
      <point x="279" y="1784"/>
      <point x="150" y="1654"/>
      <point x="150" y="1496" type="curve" smooth="yes"/>
      <point x="150" y="1336"/>
      <point x="279" y="1207"/>
    </contour>
    <contour>
      <point x="438" y="1361" type="curve" smooth="yes"/>
      <point x="364" y="1361"/>
      <point x="305" y="1421"/>
      <point x="305" y="1496" type="curve" smooth="yes"/>
      <point x="305" y="1568"/>
      <point x="364" y="1632"/>
      <point x="438" y="1632" type="curve" smooth="yes"/>
      <point x="512" y="1632"/>
      <point x="572" y="1568"/>
      <point x="572" y="1496" type="curve" smooth="yes"/>
      <point x="572" y="1421"/>
      <point x="512" y="1361"/>
    </contour>
    <contour>
      <point x="437" y="1530" type="move" name="_top"/>
    </contour>
  </outline>
</glyph>
<glyph name="hungarumlaut" format="1">
  <advance width="1213"/>
  <unicode hex="02DD"/>
  <outline>
    <contour>
      <point x="274" y="1316" type="line" name="hr00"/>
      <point x="515" y="1588" type="line" smooth="yes"/>
      <point x="546" y="1623"/>
      <point x="562" y="1668"/>
      <point x="562" y="1711" type="curve" smooth="yes"/>
      <point x="562" y="1760"/>
      <point x="541" y="1806"/>
      <point x="496" y="1834" type="curve" smooth="yes"/>
      <point x="471" y="1849"/>
      <point x="446" y="1856"/>
      <point x="421" y="1856" type="curve" smooth="yes"/>
      <point x="363" y="1856"/>
      <point x="310" y="1816"/>
      <point x="286" y="1753" type="curve" smooth="yes"/>
      <point x="150" y="1391" type="line"/>
    </contour>
    <contour>
      <point x="633" y="1385" type="line"/>
      <point x="759" y="1304" type="line"/>
      <point x="1008" y="1553" type="line" smooth="yes"/>
      <point x="1044" y="1589"/>
      <point x="1063" y="1637"/>
      <point x="1063" y="1684" type="curve" smooth="yes"/>
      <point x="1063" y="1729"/>
      <point x="1045" y="1773"/>
      <point x="1005" y="1802" type="curve" smooth="yes"/>
      <point x="978" y="1821"/>
      <point x="950" y="1830"/>
      <point x="923" y="1830" type="curve" smooth="yes"/>
      <point x="868" y="1830"/>
      <point x="816" y="1794"/>
      <point x="791" y="1734" type="curve"/>
    </contour>
    <contour>
      <point x="576" y="1530" type="move" name="_top"/>
    </contour>
  </outline>
</glyph>
<glyph name="uni0300" format="1">
  <advance width="0"/>
  <unicode hex="0300"/>
  <outline>
    <contour>
      <point x="-180" y="1393" type="curve" name="hr00"/>
      <point x="244" y="1280" type="line"/>
      <point x="305" y="1385" type="line"/>
      <point x="-76" y="1659" type="line" smooth="yes"/>
      <point x="-107" y="1681"/>
      <point x="-139" y="1692"/>
      <point x="-169" y="1692" type="curve" smooth="yes"/>
      <point x="-220" y="1692"/>
      <point x="-266" y="1661"/>
      <point x="-291" y="1606" type="curve" smooth="yes"/>
      <point x="-300" y="1586"/>
      <point x="-304" y="1566"/>
      <point x="-304" y="1547" type="curve" smooth="yes"/>
      <point x="-304" y="1476"/>
      <point x="-250" y="1412"/>
    </contour>
    <contour>
      <point x="95" y="1530" type="move" name="_top"/>
    </contour>
  </outline>
</glyph>
<glyph name="uni0306" format="1">
  <advance width="0"/>
  <unicode hex="0306"/>
  <outline>
    <contour>
      <point x="-45" y="1289" type="curve" smooth="yes" name="hr00"/>
      <point x="46" y="1289" type="line" smooth="yes"/>
      <point x="245" y="1289"/>
      <point x="405" y="1449"/>
      <point x="405" y="1676" type="curve"/>
      <point x="255" y="1676" type="line"/>
      <point x="255" y="1604"/>
      <point x="147" y="1514"/>
      <point x="24" y="1514" type="curve" smooth="yes"/>
      <point x="-22" y="1514" type="line" smooth="yes"/>
      <point x="-146" y="1514"/>
      <point x="-253" y="1604"/>
      <point x="-253" y="1676" type="curve"/>
      <point x="-404" y="1676" type="line"/>
      <point x="-404" y="1449"/>
      <point x="-244" y="1289"/>
    </contour>
    <contour>
      <point x="1" y="1530" type="move" name="_top"/>
    </contour>
  </outline>
</glyph>
<glyph name="uni0307" format="1">
  <advance width="0"/>
  <unicode hex="0307"/>
  <outline>
    <contour>
      <point x="1" y="1289" type="curve" smooth="yes" name="hr00"/>
      <point x="93" y="1289"/>
      <point x="167" y="1357"/>
      <point x="167" y="1457" type="curve" smooth="yes"/>
      <point x="167" y="1556"/>
      <point x="93" y="1630"/>
      <point x="1" y="1630" type="curve" smooth="yes"/>
      <point x="-96" y="1630"/>
      <point x="-166" y="1556"/>
      <point x="-166" y="1457" type="curve" smooth="yes"/>
      <point x="-166" y="1357"/>
      <point x="-96" y="1289"/>
    </contour>
    <contour>
      <point x="3" y="1530" type="move" name="_top"/>
    </contour>
  </outline>
</glyph>
<glyph name="uni030A" format="1">
  <advance width="0"/>
  <unicode hex="030A"/>
  <outline>
    <contour>
      <point x="0" y="1287" type="curve" smooth="yes" name="hr00"/>
      <point x="160" y="1287"/>
      <point x="289" y="1416"/>
      <point x="289" y="1576" type="curve" smooth="yes"/>
      <point x="289" y="1734"/>
      <point x="160" y="1864"/>
      <point x="0" y="1864" type="curve" smooth="yes"/>
      <point x="-159" y="1864"/>
      <point x="-288" y="1734"/>
      <point x="-288" y="1576" type="curve" smooth="yes"/>
      <point x="-288" y="1416"/>
      <point x="-159" y="1287"/>
    </contour>
    <contour>
      <point x="0" y="1441" type="curve" smooth="yes"/>
      <point x="-74" y="1441"/>
      <point x="-133" y="1501"/>
      <point x="-133" y="1576" type="curve" smooth="yes"/>
      <point x="-133" y="1648"/>
      <point x="-74" y="1712"/>
      <point x="0" y="1712" type="curve" smooth="yes"/>
      <point x="74" y="1712"/>
      <point x="134" y="1648"/>
      <point x="134" y="1576" type="curve" smooth="yes"/>
      <point x="134" y="1501"/>
      <point x="74" y="1441"/>
    </contour>
    <contour>
      <point x="-1" y="1530" type="move" name="_top"/>
    </contour>
  </outline>
</glyph>
<glyph name="uni030B" format="1">
  <advance width="0"/>
  <unicode hex="030B"/>
  <outline>
    <contour>
      <point x="-42" y="1513" type="line" smooth="yes" name="hr00"/>
      <point x="-14" y="1547"/>
      <point x="1" y="1592"/>
      <point x="1" y="1635" type="curve" smooth="yes"/>
      <point x="1" y="1684"/>
      <point x="-18" y="1730"/>
      <point x="-59" y="1757" type="curve" smooth="yes"/>
      <point x="-82" y="1772"/>
      <point x="-106" y="1779"/>
      <point x="-128" y="1779" type="curve" smooth="yes"/>
      <point x="-181" y="1779"/>
      <point x="-229" y="1740"/>
      <point x="-250" y="1677" type="curve" smooth="yes"/>
      <point x="-374" y="1317" type="line"/>
      <point x="-261" y="1242" type="line"/>
    </contour>
    <contour>
      <point x="406" y="1478" type="line" smooth="yes"/>
      <point x="438" y="1513"/>
      <point x="456" y="1562"/>
      <point x="456" y="1608" type="curve" smooth="yes"/>
      <point x="456" y="1653"/>
      <point x="439" y="1696"/>
      <point x="403" y="1725" type="curve" smooth="yes"/>
      <point x="379" y="1744"/>
      <point x="353" y="1753"/>
      <point x="328" y="1753" type="curve" smooth="yes"/>
      <point x="278" y="1753"/>
      <point x="232" y="1717"/>
      <point x="209" y="1658" type="curve"/>
      <point x="65" y="1311" type="line"/>
      <point x="180" y="1230" type="line"/>
    </contour>
    <contour>
      <point x="-31" y="1530" type="move" name="_top"/>
    </contour>
  </outline>
</glyph>
<glyph name="uni030C" format="1">
  <advance width="0"/>
  <unicode hex="030C"/>
  <outline>
    <contour>
      <point x="-156" y="1361" type="line" smooth="yes" name="hr00"/>
      <point x="-102" y="1309"/>
      <point x="-47" y="1287"/>
      <point x="-1" y="1287" type="curve" smooth="yes"/>
      <point x="51" y="1287"/>
      <point x="102" y="1310"/>
      <point x="156" y="1361" type="curve" smooth="yes"/>
      <point x="421" y="1614" type="line"/>
      <point x="393" y="1653"/>
      <point x="370" y="1679"/>
      <point x="341" y="1720" type="curve"/>
      <point x="228" y="1657"/>
      <point x="110" y="1589"/>
      <point x="-1" y="1528" type="curve"/>
      <point x="-337" y="1720" type="line"/>
      <point x="-369" y="1678"/>
      <point x="-388" y="1657"/>
      <point x="-421" y="1614" type="curve"/>
    </contour>
    <contour>
      <point x="1" y="1530" type="move" name="_top"/>
    </contour>
  </outline>
</glyph>
<glyph name="uni030F" format="1">
  <advance width="0"/>
  <unicode hex="030F"/>
  <outline>
    <contour>
      <point x="219" y="1242" type="line" name="hr00"/>
      <point x="332" y="1317" type="line"/>
      <point x="208" y="1677" type="line" smooth="yes"/>
      <point x="187" y="1740"/>
      <point x="139" y="1779"/>
      <point x="86" y="1779" type="curve" smooth="yes"/>
      <point x="64" y="1779"/>
      <point x="40" y="1772"/>
      <point x="17" y="1757" type="curve" smooth="yes"/>
      <point x="-24" y="1730"/>
      <point x="-43" y="1684"/>
      <point x="-43" y="1635" type="curve" smooth="yes"/>
      <point x="-43" y="1592"/>
      <point x="-28" y="1547"/>
      <point x="0" y="1513" type="curve" smooth="yes"/>
    </contour>
    <contour>
      <point x="-222" y="1230" type="line"/>
      <point x="-107" y="1311" type="line"/>
      <point x="-251" y="1658" type="line"/>
      <point x="-274" y="1717"/>
      <point x="-320" y="1753"/>
      <point x="-370" y="1753" type="curve" smooth="yes"/>
      <point x="-395" y="1753"/>
      <point x="-421" y="1744"/>
      <point x="-445" y="1725" type="curve" smooth="yes"/>
      <point x="-481" y="1696"/>
      <point x="-498" y="1653"/>
      <point x="-498" y="1608" type="curve" smooth="yes"/>
      <point x="-498" y="1562"/>
      <point x="-480" y="1513"/>
      <point x="-448" y="1478" type="curve" smooth="yes"/>
    </contour>
    <contour>
      <point x="-11" y="1530" type="move" name="_top"/>
    </contour>
  </outline>
</glyph>
<glyph name="uni0313" format="1">
  <advance width="0"/>
  <unicode hex="0313"/>
  <outline>
    <contour>
      <point x="-43" y="1219" type="line" name="hr00"/>
      <point x="64" y="1332" type="line"/>
      <point x="134" y="1412"/>
      <point x="169" y="1478"/>
      <point x="169" y="1594" type="curve" smooth="yes"/>
      <point x="169" y="1688"/>
      <point x="93" y="1750"/>
      <point x="0" y="1750" type="curve" smooth="yes"/>
      <point x="-96" y="1750"/>
      <point x="-169" y="1675"/>
      <point x="-169" y="1581" type="curve"/>
      <point x="-169" y="1518"/>
      <point x="-136" y="1465"/>
      <point x="-87" y="1436" type="curve"/>
      <point x="-137" y="1264" type="line"/>
    </contour>
    <contour>
      <point x="1" y="1530" type="move" name="_top"/>
    </contour>
  </outline>
</glyph>
<glyph name="uni0315" format="1">
  <advance width="0"/>
  <unicode hex="0315"/>
  <outline>
    <contour>
      <point x="99" y="1124" type="line" name="hr00"/>
      <point x="169" y="1253"/>
      <point x="204" y="1344"/>
      <point x="204" y="1453" type="curve" smooth="yes"/>
      <point x="204" y="1547"/>
      <point x="153" y="1545"/>
      <point x="60" y="1545" type="curve" smooth="yes"/>
      <point x="7" y="1545"/>
      <point x="-12" y="1527"/>
      <point x="-20" y="1491" type="curve"/>
      <point x="-35" y="1124" type="line"/>
    </contour>
  </outline>
</glyph>
<glyph name="uni0328" format="1">
  <advance width="0"/>
  <unicode hex="0328"/>
  <outline>
    <contour>
      <point x="-232" y="-207" type="line" name="hr00"/>
      <point x="-262" y="-241"/>
      <point x="-281" y="-277"/>
      <point x="-281" y="-337" type="curve" smooth="yes"/>
      <point x="-281" y="-428"/>
      <point x="-209" y="-509"/>
      <point x="-118" y="-509" type="curve" smooth="yes"/>
      <point x="282" y="-509" type="line"/>
      <point x="282" y="-301" type="line"/>
      <point x="-100" y="-301" type="line"/>
      <point x="247" y="59" type="line"/>
      <point x="81" y="111" type="line"/>
    </contour>
    <contour>
      <point x="54" y="0" type="move" name="_btm"/>
    </contour>
  </outline>
</glyph>
<glyph name="Omegagreek" format="1">
  <advance width="1385"/>
  <unicode hex="03A9"/>
  <outline>
    <contour>
      <point x="92" y="171" type="line" name="hr00"/>
      <point x="102" y="78"/>
      <point x="179" y="0"/>
      <point x="267" y="0" type="curve" smooth="yes"/>
      <point x="452" y="0" type="line"/>
      <point x="452" y="1347" type="line"/>
      <point x="933" y="1347" type="line"/>
      <point x="933" y="0" type="line"/>
      <point x="1148" y="0" type="line" smooth="yes"/>
      <point x="1236" y="0"/>
      <point x="1313" y="78"/>
      <point x="1323" y="171" type="curve"/>
      <point x="1036" y="171" type="line"/>
      <point x="1115" y="208"/>
      <point x="1172" y="452"/>
      <point x="1172" y="562" type="curve"/>
      <point x="1172" y="1262" type="line" smooth="yes"/>
      <point x="1172" y="1404"/>
      <point x="1086" y="1516"/>
      <point x="981" y="1516" type="curve" smooth="yes"/>
      <point x="401" y="1516" type="line" smooth="yes"/>
      <point x="298" y="1516"/>
      <point x="213" y="1404"/>
      <point x="213" y="1262" type="curve" smooth="yes"/>
      <point x="213" y="562" type="line" smooth="yes"/>
      <point x="213" y="452"/>
      <point x="270" y="208"/>
      <point x="349" y="171" type="curve"/>
    </contour>
    <contour>
      <point x="693" y="1770" type="move" name="top"/>
    </contour>
  </outline>
</glyph>
<glyph name="uni1E9E" format="1">
  <advance width="1359"/>
  <unicode hex="1E9E"/>
  <outline>
    <contour>
      <point x="459" y="-269" type="curve" smooth="yes" name="hr00"/>
      <point x="459" y="1346" type="line"/>
      <point x="940" y="1346" type="line"/>
      <point x="666" y="849" type="line"/>
      <point x="666" y="717" type="line"/>
      <point x="940" y="717" type="line"/>
      <point x="940" y="171" type="line"/>
      <point x="667" y="171" type="line"/>
      <point x="667" y="0" type="line"/>
      <point x="988" y="0" type="line" smooth="yes"/>
      <point x="1092" y="0"/>
      <point x="1178" y="113"/>
      <point x="1178" y="252" type="curve" smooth="yes"/>
      <point x="1179" y="632" type="line" smooth="yes"/>
      <point x="1179" y="774"/>
      <point x="1093" y="886"/>
      <point x="988" y="886" type="curve" smooth="yes"/>
      <point x="928" y="886" type="line"/>
      <point x="1134" y="1232" type="line" smooth="yes"/>
      <point x="1147" y="1253"/>
      <point x="1159" y="1296"/>
      <point x="1159" y="1327" type="curve" smooth="yes"/>
      <point x="1159" y="1431"/>
      <point x="1079" y="1515"/>
      <point x="981" y="1515" type="curve" smooth="yes"/>
      <point x="408" y="1515" type="line" smooth="yes"/>
      <point x="305" y="1515"/>
      <point x="220" y="1403"/>
      <point x="220" y="1261" type="curve" smooth="yes"/>
      <point x="220" y="-525" type="line"/>
      <point x="257" y="-525" type="line" smooth="yes"/>
      <point x="367" y="-525"/>
      <point x="459" y="-409"/>
    </contour>
  </outline>
</glyph>
<glyph name="quoteright" format="1">
  <advance width="557"/>
  <unicode hex="2019"/>
  <outline>
    <contour>
      <point x="214" y="898" type="line" name="hr01"/>
      <point x="328" y="1041" type="line"/>
      <point x="415" y="1148"/>
      <point x="467" y="1230"/>
      <point x="467" y="1346" type="curve" smooth="yes" name="hr02"/>
      <point x="467" y="1440"/>
      <point x="391" y="1515"/>
      <point x="298" y="1515" type="curve" smooth="yes"/>
      <point x="202" y="1515"/>
      <point x="129" y="1440"/>
      <point x="129" y="1346" type="curve" smooth="yes"/>
      <point x="129" y="1283"/>
      <point x="162" y="1230"/>
      <point x="211" y="1201" type="curve"/>
      <point x="120" y="943" type="line"/>
    </contour>
  </outline>
</glyph>
<glyph name="quotereversed" format="1">
  <advance width="557"/>
  <unicode hex="201B"/>
  <outline>
    <contour>
      <point x="343" y="898" type="line"/>
      <point x="437" y="943" type="line"/>
      <point x="346" y="1201" type="line"/>
      <point x="395" y="1230"/>
      <point x="428" y="1283"/>
      <point x="428" y="1346" type="curve" smooth="yes"/>
      <point x="428" y="1440"/>
      <point x="355" y="1515"/>
      <point x="259" y="1515" type="curve" smooth="yes" name="hr02"/>
      <point x="166" y="1515"/>
      <point x="90" y="1440"/>
      <point x="90" y="1346" type="curve" smooth="yes"/>
      <point x="90" y="1230"/>
      <point x="142" y="1148"/>
      <point x="229" y="1041" type="curve" name="hr01"/>
    </contour>
  </outline>
</glyph>
<glyph name="quotedblbase" format="1">
  <advance width="1072"/>
  <unicode hex="201E"/>
  <outline>
    <contour>
      <point x="644" y="157" type="curve" smooth="yes" name="hr01"/>
      <point x="644" y="94"/>
      <point x="677" y="41"/>
      <point x="726" y="12" type="curve"/>
      <point x="635" y="-246" type="line"/>
      <point x="729" y="-291" type="line"/>
      <point x="843" y="-148" type="line" smooth="yes"/>
      <point x="929" y="-40"/>
      <point x="982" y="41"/>
      <point x="982" y="157" type="curve" smooth="yes"/>
      <point x="982" y="251"/>
      <point x="906" y="326"/>
      <point x="813" y="326" type="curve" smooth="yes"/>
      <point x="717" y="326"/>
      <point x="644" y="251"/>
    </contour>
    <contour>
      <point x="129" y="157" type="curve" smooth="yes"/>
      <point x="129" y="94"/>
      <point x="162" y="41"/>
      <point x="211" y="12" type="curve"/>
      <point x="120" y="-246" type="line"/>
      <point x="214" y="-291" type="line"/>
      <point x="328" y="-148" type="line" smooth="yes"/>
      <point x="414" y="-40"/>
      <point x="467" y="41"/>
      <point x="467" y="157" type="curve" smooth="yes"/>
      <point x="467" y="251"/>
      <point x="391" y="326"/>
      <point x="298" y="326" type="curve" smooth="yes"/>
      <point x="202" y="326"/>
      <point x="129" y="251"/>
    </contour>
  </outline>
</glyph>
<glyph name="uni201F" format="1">
  <advance width="1072"/>
  <unicode hex="201F"/>
  <outline>
    <contour>
      <point x="858" y="898" type="line"/>
      <point x="952" y="943" type="line"/>
      <point x="861" y="1201" type="line"/>
      <point x="910" y="1230"/>
      <point x="943" y="1283"/>
      <point x="943" y="1346" type="curve" name="hr02"/>
      <point x="943" y="1440"/>
      <point x="870" y="1515"/>
      <point x="774" y="1515" type="curve" smooth="yes"/>
      <point x="681" y="1515"/>
      <point x="605" y="1440"/>
      <point x="605" y="1346" type="curve" smooth="yes"/>
      <point x="605" y="1230"/>
      <point x="658" y="1149"/>
      <point x="744" y="1041" type="curve" smooth="yes" name="hr01"/>
    </contour>
    <contour>
      <point x="343" y="898" type="line"/>
      <point x="437" y="943" type="line"/>
      <point x="346" y="1201" type="line"/>
      <point x="395" y="1230"/>
      <point x="428" y="1283"/>
      <point x="428" y="1346" type="curve"/>
      <point x="428" y="1440"/>
      <point x="355" y="1515"/>
      <point x="259" y="1515" type="curve" smooth="yes"/>
      <point x="166" y="1515"/>
      <point x="90" y="1440"/>
      <point x="90" y="1346" type="curve" smooth="yes"/>
      <point x="90" y="1230"/>
      <point x="143" y="1149"/>
      <point x="229" y="1041" type="curve" smooth="yes"/>
    </contour>
  </outline>
</glyph>
<glyph name="dagger" format="1">
  <advance width="1285"/>
  <unicode hex="2020"/>
  <outline>
    <contour>
      <point x="526" y="-525" type="line" name="hr00"/>
      <point x="562" y="-525" type="line" smooth="yes"/>
      <point x="672" y="-525"/>
      <point x="764" y="-409"/>
      <point x="764" y="-269" type="curve" smooth="yes"/>
      <point x="764" y="892" type="line"/>
      <point x="941" y="892" type="line" smooth="yes"/>
      <point x="1022" y="892"/>
      <point x="1092" y="962"/>
      <point x="1101" y="1048" type="curve"/>
      <point x="764" y="1048" type="line"/>
      <point x="764" y="1578" type="line"/>
      <point x="526" y="1578" type="line"/>
      <point x="526" y="1048" type="line"/>
      <point x="338" y="1048" type="line" smooth="yes"/>
      <point x="257" y="1048"/>
      <point x="187" y="978"/>
      <point x="178" y="892" type="curve"/>
      <point x="526" y="892" type="line"/>
    </contour>
  </outline>
</glyph>
<glyph name="daggerdbl" format="1">
  <advance width="1285"/>
  <unicode hex="2021"/>
  <outline>
    <contour>
      <point x="177" y="527" type="curve" name="hr00"/>
      <point x="525" y="527" type="line"/>
      <point x="525" y="-525" type="line"/>
      <point x="561" y="-525" type="line" smooth="yes"/>
      <point x="671" y="-525"/>
      <point x="763" y="-409"/>
      <point x="763" y="-269" type="curve" smooth="yes"/>
      <point x="763" y="527" type="line"/>
      <point x="940" y="527" type="line" smooth="yes"/>
      <point x="1021" y="527"/>
      <point x="1091" y="597"/>
      <point x="1100" y="683" type="curve"/>
      <point x="763" y="683" type="line"/>
      <point x="763" y="892" type="line"/>
      <point x="940" y="892" type="line" smooth="yes"/>
      <point x="1021" y="892"/>
      <point x="1091" y="962"/>
      <point x="1100" y="1048" type="curve"/>
      <point x="763" y="1048" type="line"/>
      <point x="763" y="1578" type="line"/>
      <point x="525" y="1578" type="line"/>
      <point x="525" y="1048" type="line"/>
      <point x="337" y="1048" type="line" smooth="yes"/>
      <point x="256" y="1048"/>
      <point x="186" y="978"/>
      <point x="177" y="892" type="curve"/>
      <point x="525" y="892" type="line"/>
      <point x="525" y="683" type="line"/>
      <point x="337" y="683" type="line" smooth="yes"/>
      <point x="256" y="683"/>
      <point x="186" y="613"/>
    </contour>
  </outline>
</glyph>
<glyph name="ellipsis" format="1">
  <advance width="2271"/>
  <unicode hex="2026"/>
  <outline>
    <contour>
      <point x="210" y="156" type="curve" smooth="yes"/>
      <point x="210" y="63"/>
      <point x="285" y="-12"/>
      <point x="378" y="-12" type="curve" smooth="yes"/>
      <point x="470" y="-12"/>
      <point x="547" y="63"/>
      <point x="547" y="156" type="curve" smooth="yes"/>
      <point x="547" y="249"/>
      <point x="471" y="325"/>
      <point x="378" y="325" type="curve" smooth="yes"/>
      <point x="285" y="325"/>
      <point x="210" y="249"/>
    </contour>
    <contour>
      <point x="967" y="156" type="curve" smooth="yes" name="hr01"/>
      <point x="967" y="63"/>
      <point x="1042" y="-12"/>
      <point x="1135" y="-12" type="curve" smooth="yes"/>
      <point x="1227" y="-12"/>
      <point x="1304" y="63"/>
      <point x="1304" y="156" type="curve" smooth="yes"/>
      <point x="1304" y="249"/>
      <point x="1228" y="325"/>
      <point x="1135" y="325" type="curve" smooth="yes"/>
      <point x="1042" y="325"/>
      <point x="967" y="249"/>
    </contour>
    <contour>
      <point x="1724" y="156" type="curve" smooth="yes" name="hr02"/>
      <point x="1724" y="63"/>
      <point x="1799" y="-12"/>
      <point x="1892" y="-12" type="curve" smooth="yes"/>
      <point x="1984" y="-12"/>
      <point x="2061" y="63"/>
      <point x="2061" y="156" type="curve" smooth="yes"/>
      <point x="2061" y="249"/>
      <point x="1985" y="325"/>
      <point x="1892" y="325" type="curve" smooth="yes"/>
      <point x="1799" y="325"/>
      <point x="1724" y="249"/>
    </contour>
  </outline>
</glyph>
<glyph name="guilsinglleft" format="1">
  <advance width="764"/>
  <unicode hex="2039"/>
  <outline>
    <contour>
      <point x="159" y="393" type="curve" smooth="yes" name="hr00"/>
      <point x="475" y="31" type="line"/>
      <point x="634" y="31" type="line"/>
      <point x="388" y="530" type="line"/>
      <point x="634" y="1029" type="line"/>
      <point x="475" y="1029" type="line"/>
      <point x="159" y="664" type="line" smooth="yes"/>
      <point x="126" y="625"/>
      <point x="100" y="582"/>
      <point x="100" y="529" type="curve" smooth="yes"/>
      <point x="100" y="474"/>
      <point x="126" y="430"/>
    </contour>
  </outline>
</glyph>
<glyph name="partialdiff" format="1">
  <advance width="1275"/>
  <unicode hex="2202"/>
  <outline>
    <contour>
      <point x="192" y="252" type="line" smooth="yes" name="hr00"/>
      <point x="192" y="113"/>
      <point x="277" y="0"/>
      <point x="380" y="0" type="curve" smooth="yes"/>
      <point x="903" y="0" type="line" smooth="yes"/>
      <point x="1007" y="0"/>
      <point x="1093" y="113"/>
      <point x="1093" y="252" type="curve" smooth="yes"/>
      <point x="1094" y="758" type="line" smooth="yes"/>
      <point x="1094" y="826"/>
      <point x="1074" y="887"/>
      <point x="1042" y="933" type="curve" smooth="yes"/>
      <point x="461" y="1681" type="line"/>
      <point x="290" y="1593" type="line"/>
      <point x="769" y="960" type="line"/>
      <point x="380" y="960" type="line" smooth="yes"/>
      <point x="277" y="960"/>
      <point x="192" y="848"/>
      <point x="192" y="706" type="curve" smooth="yes"/>
    </contour>
    <contour>
      <point x="421" y="171" type="line"/>
      <point x="421" y="789" type="line"/>
      <point x="865" y="789" type="line"/>
      <point x="865" y="171" type="line"/>
    </contour>
  </outline>
</glyph>
<glyph name="radical" format="1">
  <advance width="1450"/>
  <unicode hex="221A"/>
  <outline>
    <contour>
      <point x="546" y="0" type="line" name="hr01"/>
      <point x="872" y="0" type="line"/>
      <point x="1306" y="1700" type="line"/>
      <point x="1067" y="1700" type="line"/>
      <point x="710" y="167" type="line"/>
      <point x="473" y="1047" type="line"/>
      <point x="153" y="1047" type="line" name="hr02"/>
      <point x="153" y="871" type="line"/>
      <point x="293" y="871" type="line"/>
    </contour>
  </outline>
</glyph>
<glyph name="infinity" format="1">
  <advance width="1445"/>
  <unicode hex="221E"/>
  <outline>
    <contour>
      <point x="352" y="143" type="curve" smooth="yes" name="hr00"/>
      <point x="453" y="143" type="line" smooth="yes"/>
      <point x="563" y="143"/>
      <point x="661" y="206"/>
      <point x="704" y="293" type="curve"/>
      <point x="747" y="206"/>
      <point x="843" y="143"/>
      <point x="954" y="143" type="curve" smooth="yes"/>
      <point x="1093" y="143" type="line" smooth="yes"/>
      <point x="1233" y="143"/>
      <point x="1347" y="230"/>
      <point x="1347" y="334" type="curve" smooth="yes"/>
      <point x="1347" y="832" type="line" smooth="yes"/>
      <point x="1347" y="937"/>
      <point x="1233" y="1023"/>
      <point x="1093" y="1023" type="curve" smooth="yes"/>
      <point x="954" y="1023" type="line" smooth="yes"/>
      <point x="843" y="1023"/>
      <point x="748" y="959"/>
      <point x="704" y="873" type="curve"/>
      <point x="662" y="959"/>
      <point x="563" y="1023"/>
      <point x="453" y="1023" type="curve" smooth="yes"/>
      <point x="352" y="1023" type="line" smooth="yes"/>
      <point x="212" y="1023"/>
      <point x="98" y="937"/>
      <point x="98" y="832" type="curve" smooth="yes"/>
      <point x="98" y="334" type="line" smooth="yes"/>
      <point x="98" y="230"/>
      <point x="212" y="143"/>
    </contour>
    <contour>
      <point x="794" y="382" type="line"/>
      <point x="794" y="783" type="line"/>
      <point x="1175" y="783" type="line"/>
      <point x="1175" y="382" type="line"/>
    </contour>
    <contour>
      <point x="269" y="382" type="line"/>
      <point x="269" y="783" type="line"/>
      <point x="623" y="783" type="line"/>
      <point x="623" y="382" type="line"/>
    </contour>
  </outline>
</glyph>
<glyph name="integral" format="1">
  <advance width="942"/>
  <unicode hex="222B"/>
  <outline>
    <contour>
      <point x="73" y="-166" type="line" name="hr00"/>
      <point x="73" y="-340" type="line"/>
      <point x="400" y="-340" type="line" smooth="yes"/>
      <point x="505" y="-340"/>
      <point x="590" y="-226"/>
      <point x="590" y="-85" type="curve" smooth="yes"/>
      <point x="590" y="1417" type="line"/>
      <point x="920" y="1417" type="line"/>
      <point x="920" y="1591" type="line"/>
      <point x="542" y="1591" type="line" smooth="yes"/>
      <point x="437" y="1591"/>
      <point x="352" y="1477"/>
      <point x="352" y="1336" type="curve" smooth="yes"/>
      <point x="352" y="-166" type="line"/>
    </contour>
  </outline>
</glyph>
<glyph name="greaterequal" format="1">
  <advance width="1285"/>
  <unicode hex="2265"/>
  <outline>
    <contour>
      <point x="270" y="363" type="line" name="hr00"/>
      <point x="1106" y="621" type="line"/>
      <point x="1106" y="807" type="line"/>
      <point x="820" y="894"/>
      <point x="555" y="978"/>
      <point x="270" y="1065" type="curve"/>
      <point x="270" y="883" type="line"/>
      <point x="918" y="715" type="line"/>
      <point x="718" y="662"/>
      <point x="436" y="587"/>
      <point x="270" y="544" type="curve"/>
    </contour>
    <contour>
      <point x="270" y="83" type="line"/>
      <point x="1106" y="83" type="line"/>
      <point x="1106" y="259" type="line"/>
      <point x="270" y="259" type="line"/>
    </contour>
  </outline>
</glyph>
<glyph name="commaaccent" format="1">
  <advance width="638"/>
  <unicode hex="F6C3"/>
  <outline>
    <contour>
      <point x="150" y="-256" type="curve" smooth="yes" name="hr00"/>
      <point x="150" y="-311"/>
      <point x="187" y="-356"/>
      <point x="242" y="-381" type="curve"/>
      <point x="174" y="-560" type="line"/>
      <point x="268" y="-605" type="line"/>
      <point x="395" y="-469"/>
      <point x="488" y="-372"/>
      <point x="488" y="-256" type="curve" smooth="yes"/>
      <point x="488" y="-162"/>
      <point x="412" y="-88"/>
      <point x="319" y="-88" type="curve" smooth="yes"/>
      <point x="223" y="-88"/>
      <point x="150" y="-162"/>
    </contour>
    <contour>
      <point x="314" y="0" type="move" name="_btm"/>
    </contour>
  </outline>
</glyph>
<glyph name="fl" format="1">
  <advance width="1453"/>
  <unicode hex="FB02"/>
  <outline>
    <contour>
      <point x="1021" y="254" type="line" smooth="yes" name="hr00"/>
      <point x="1021" y="114"/>
      <point x="1107" y="0"/>
      <point x="1212" y="0" type="curve" smooth="yes"/>
      <point x="1296" y="0" type="line" smooth="yes"/>
      <point x="1381" y="0"/>
      <point x="1457" y="64"/>
      <point x="1473" y="171" type="curve"/>
      <point x="1260" y="171" type="line"/>
      <point x="1260" y="1591" type="line"/>
      <point x="1021" y="1591" type="line"/>
    </contour>
    <contour>
      <point x="496" y="-269" type="curve"/>
      <point x="496" y="894" type="line"/>
      <point x="746" y="894" type="line"/>
      <point x="746" y="1048" type="line"/>
      <point x="496" y="1048" type="line"/>
      <point x="496" y="1417" type="line"/>
      <point x="790" y="1417" type="line"/>
      <point x="790" y="1591" type="line"/>
      <point x="448" y="1591" type="line" smooth="yes"/>
      <point x="343" y="1591"/>
      <point x="258" y="1477"/>
      <point x="258" y="1336" type="curve" smooth="yes"/>
      <point x="258" y="1048" type="line"/>
      <point x="178" y="1048" type="line"/>
      <point x="178" y="894" type="line"/>
      <point x="258" y="894" type="line"/>
      <point x="258" y="-525" type="line"/>
      <point x="294" y="-525" type="line" smooth="yes"/>
      <point x="404" y="-525"/>
      <point x="496" y="-409"/>
    </contour>
  </outline>
</glyph>
<glyph name=".notdef" format="1">
  <advance width="2027"/>
  <outline>
    <contour>
      <point x="-40" y="-190" type="line" name="hr00"/>
      <point x="1675" y="-190" type="line"/>
      <point x="1675" y="1636" type="line"/>
      <point x="-40" y="1636" type="line"/>
    </contour>
    <contour>
      <point x="275" y="351" type="line"/>
      <point x="632" y="705" type="line"/>
      <point x="277" y="1057" type="line"/>
      <point x="465" y="1249" type="line"/>
      <point x="817" y="892" type="line"/>
      <point x="1171" y="1248" type="line"/>
      <point x="1358" y="1058" type="line"/>
      <point x="1001" y="707" type="line"/>
      <point x="1360" y="353" type="line"/>
      <point x="1171" y="160" type="line"/>
      <point x="815" y="519" type="line"/>
      <point x="461" y="160" type="line"/>
    </contour>
  </outline>
</glyph>
<glyph name="acute.cap" format="1">
  <advance width="818"/>
  <outline>
    <contour>
      <point x="205" y="1672" type="line" name="hr00"/>
      <point x="556" y="1794" type="line" smooth="yes"/>
      <point x="619" y="1811"/>
      <point x="668" y="1868"/>
      <point x="668" y="1932" type="curve" smooth="yes"/>
      <point x="668" y="1949"/>
      <point x="664" y="1967"/>
      <point x="656" y="1985" type="curve" smooth="yes"/>
      <point x="633" y="2035"/>
      <point x="592" y="2062"/>
      <point x="546" y="2062" type="curve" smooth="yes"/>
      <point x="519" y="2062"/>
      <point x="491" y="2053"/>
      <point x="463" y="2033" type="curve" smooth="yes"/>
      <point x="150" y="1766" type="line"/>
    </contour>
    <contour>
      <point x="299" y="1785" type="move" name="_top"/>
    </contour>
  </outline>
</glyph>
<glyph name="caron.cap" format="1">
  <advance width="1058"/>
  <outline>
    <contour>
      <point x="528" y="1625" type="curve" smooth="yes" name="hr00"/>
      <point x="575" y="1625"/>
      <point x="621" y="1645"/>
      <point x="669" y="1691" type="curve" smooth="yes"/>
      <point x="908" y="1919" type="line"/>
      <point x="836" y="2014" type="line"/>
      <point x="734" y="1958"/>
      <point x="628" y="1896"/>
      <point x="528" y="1842" type="curve"/>
      <point x="226" y="2014" type="line"/>
      <point x="150" y="1919" type="line"/>
      <point x="389" y="1691" type="line" smooth="yes"/>
      <point x="437" y="1644"/>
      <point x="487" y="1625"/>
    </contour>
    <contour>
      <point x="527" y="1785" type="move" name="_top"/>
    </contour>
  </outline>
</glyph>
<glyph name="circumflex.cap" format="1">
  <advance width="1058"/>
  <outline>
    <contour>
      <point x="222" y="1601" type="curve" name="hr00"/>
      <point x="324" y="1657"/>
      <point x="430" y="1719"/>
      <point x="530" y="1773" type="curve"/>
      <point x="832" y="1601" type="line"/>
      <point x="861" y="1638"/>
      <point x="878" y="1657"/>
      <point x="908" y="1696" type="curve"/>
      <point x="669" y="1924" type="line" smooth="yes"/>
      <point x="621" y="1971"/>
      <point x="571" y="1990"/>
      <point x="530" y="1990" type="curve" smooth="yes"/>
      <point x="483" y="1990"/>
      <point x="437" y="1970"/>
      <point x="389" y="1924" type="curve" smooth="yes"/>
      <point x="150" y="1696" type="line"/>
      <point x="175" y="1661"/>
      <point x="196" y="1638"/>
    </contour>
    <contour>
      <point x="530" y="1770" type="move" name="_top"/>
    </contour>
  </outline>
</glyph>
<glyph name="dieresis.cap" format="1">
  <advance width="1081"/>
  <outline>
    <contour>
      <point x="301" y="1693" type="curve" smooth="yes" name="hr00"/>
      <point x="393" y="1693"/>
      <point x="450" y="1764"/>
      <point x="450" y="1854" type="curve" smooth="yes"/>
      <point x="450" y="1943"/>
      <point x="393" y="2015"/>
      <point x="301" y="2015" type="curve" smooth="yes"/>
      <point x="203" y="2015"/>
      <point x="150" y="1943"/>
      <point x="150" y="1854" type="curve" smooth="yes"/>
      <point x="150" y="1764"/>
      <point x="203" y="1693"/>
    </contour>
    <contour>
      <point x="782" y="1693" type="curve" smooth="yes"/>
      <point x="874" y="1693"/>
      <point x="931" y="1764"/>
      <point x="931" y="1854" type="curve" smooth="yes"/>
      <point x="931" y="1943"/>
      <point x="874" y="2015"/>
      <point x="782" y="2015" type="curve" smooth="yes"/>
      <point x="684" y="2015"/>
      <point x="631" y="1943"/>
      <point x="631" y="1854" type="curve" smooth="yes"/>
      <point x="631" y="1764"/>
      <point x="684" y="1693"/>
    </contour>
    <contour>
      <point x="540" y="1785" type="move" name="_top"/>
    </contour>
  </outline>
</glyph>
<glyph name="foundryicon" format="1">
  <advance width="2919"/>
  <outline>
    <contour>
      <point x="352" y="232" type="curve" smooth="yes" name="hr01"/>
      <point x="1211" y="232" type="line"/>
      <point x="1305" y="232"/>
      <point x="1406" y="312"/>
      <point x="1406" y="436" type="curve" smooth="yes"/>
      <point x="1406" y="1088" type="line" smooth="yes"/>
      <point x="1406" y="1197"/>
      <point x="1318" y="1287"/>
      <point x="1208" y="1287" type="curve" smooth="yes"/>
      <point x="352" y="1287" type="line" smooth="yes"/>
      <point x="242" y="1287"/>
      <point x="153" y="1198"/>
      <point x="153" y="1088" type="curve" smooth="yes"/>
      <point x="153" y="431" type="line" smooth="yes"/>
      <point x="153" y="321"/>
      <point x="242" y="232"/>
    </contour>
    <contour>
      <point x="2166" y="545" type="line"/>
      <point x="2306" y="545" type="line"/>
      <point x="2306" y="1055" type="line"/>
      <point x="2322" y="1030"/>
      <point x="2348" y="1014"/>
      <point x="2381" y="1014" type="curve" smooth="yes" name="hr02"/>
      <point x="2596" y="1013" type="line" smooth="yes"/>
      <point x="2644" y="1013"/>
      <point x="2684" y="1054"/>
      <point x="2684" y="1100" type="curve" smooth="yes" name="hr03"/>
      <point x="2684" y="1198" type="line" smooth="yes"/>
      <point x="2684" y="1246"/>
      <point x="2644" y="1285"/>
      <point x="2596" y="1285" type="curve" smooth="yes"/>
      <point x="2166" y="1284" type="line"/>
    </contour>
    <contour>
      <point x="1608" y="632" type="line" smooth="yes"/>
      <point x="1608" y="584"/>
      <point x="1648" y="545"/>
      <point x="1695" y="545" type="curve" smooth="yes"/>
      <point x="2037" y="545" type="line" smooth="yes"/>
      <point x="2086" y="545"/>
      <point x="2124" y="584"/>
      <point x="2124" y="632" type="curve" smooth="yes"/>
      <point x="2124" y="1284" type="line"/>
      <point x="1984" y="1284" type="line"/>
      <point x="1984" y="1128" type="line" name="hr04"/>
      <point x="1938" y="1128" type="line" name="hr05"/>
      <point x="1938" y="1284" type="line"/>
      <point x="1800" y="1284" type="line"/>
      <point x="1800" y="1101" type="line" smooth="yes"/>
      <point x="1800" y="1054"/>
      <point x="1837" y="1014"/>
      <point x="1886" y="1014" type="curve" smooth="yes"/>
      <point x="1915" y="1014" type="line" smooth="yes"/>
      <point x="1943" y="1014"/>
      <point x="1973" y="1029"/>
      <point x="1984" y="1055" type="curve"/>
      <point x="1984" y="654" type="line"/>
      <point x="1608" y="654" type="line" name="hr06"/>
    </contour>
    <contour>
      <point x="1608" y="787" type="line" smooth="yes"/>
      <point x="1608" y="740"/>
      <point x="1648" y="700"/>
      <point x="1694" y="700" type="curve" smooth="yes"/>
      <point x="1898" y="700" type="line" smooth="yes"/>
      <point x="1947" y="700"/>
      <point x="1985" y="740"/>
      <point x="1985" y="787" type="curve" smooth="yes"/>
      <point x="1985" y="810" type="line"/>
      <point x="1747" y="810" type="line" name="hr07"/>
      <point x="1747" y="857" type="line"/>
      <point x="1941" y="857" type="line"/>
      <point x="1941" y="967" type="line"/>
      <point x="1747" y="967" type="line"/>
      <point x="1747" y="1284" type="line"/>
      <point x="1608" y="1238" type="line"/>
      <point x="1608" y="967" type="line"/>
      <point x="1575" y="967" type="line"/>
      <point x="1575" y="857" type="line"/>
      <point x="1608" y="857" type="line"/>
    </contour>
    <contour>
      <point x="2306" y="1128" type="line"/>
      <point x="2306" y="1176" type="line" name="hr08"/>
      <point x="2544" y="1176" type="line"/>
      <point x="2544" y="1128" type="line"/>
    </contour>
    <contour>
      <point x="923" y="593" type="curve" smooth="yes"/>
      <point x="923" y="878" type="line"/>
      <point x="846" y="878" type="line"/>
      <point x="846" y="947" type="line"/>
      <point x="923" y="947" type="line"/>
      <point x="923" y="1071" type="line"/>
      <point x="1031" y="1124" type="line"/>
      <point x="1031" y="947" type="line"/>
      <point x="1160" y="947" type="line"/>
      <point x="1160" y="878" type="line"/>
      <point x="1031" y="878" type="line"/>
      <point x="1031" y="555" type="line"/>
      <point x="1200" y="555" type="line"/>
      <point x="1194" y="513"/>
      <point x="1160" y="479"/>
      <point x="1121" y="479" type="curve" smooth="yes"/>
      <point x="1009" y="479" type="line"/>
      <point x="962" y="479"/>
      <point x="923" y="530"/>
    </contour>
    <contour>
      <point x="333" y="479" type="line"/>
      <point x="516" y="973" type="line"/>
      <point x="619" y="973" type="line"/>
      <point x="614" y="960"/>
      <point x="611" y="946"/>
      <point x="610" y="938" type="curve"/>
      <point x="607" y="894"/>
      <point x="648" y="870"/>
      <point x="691" y="834" type="curve" smooth="yes"/>
      <point x="739" y="795"/>
      <point x="783" y="730"/>
      <point x="781" y="661" type="curve"/>
      <point x="779" y="610"/>
      <point x="742" y="569"/>
      <point x="697" y="557" type="curve"/>
      <point x="863" y="557" type="line"/>
      <point x="851" y="510"/>
      <point x="819" y="479"/>
      <point x="782" y="479" type="curve" smooth="yes"/>
      <point x="655" y="479" type="line"/>
      <point x="600" y="479"/>
      <point x="584" y="516"/>
      <point x="588" y="557" type="curve"/>
      <point x="626" y="561"/>
      <point x="663" y="586"/>
      <point x="668" y="648" type="curve" smooth="yes"/>
      <point x="671" y="697"/>
      <point x="644" y="732"/>
      <point x="617" y="761" type="curve" smooth="yes"/>
      <point x="601" y="779"/>
      <point x="579" y="806"/>
      <point x="573" y="847" type="curve"/>
      <point x="439" y="479" type="line"/>
    </contour>
    <contour>
      <point x="2350" y="632" type="line" smooth="yes"/>
      <point x="2350" y="583"/>
      <point x="2391" y="545"/>
      <point x="2437" y="545" type="curve" smooth="yes"/>
      <point x="2597" y="545" type="line" smooth="yes"/>
      <point x="2645" y="545"/>
      <point x="2685" y="584"/>
      <point x="2685" y="632" type="curve" smooth="yes"/>
      <point x="2685" y="654" type="line"/>
      <point x="2491" y="654" type="line"/>
      <point x="2491" y="701" type="line"/>
      <point x="2685" y="701" type="line"/>
      <point x="2685" y="879" type="line" smooth="yes"/>
      <point x="2685" y="928"/>
      <point x="2645" y="967"/>
      <point x="2597" y="967" type="curve" smooth="yes"/>
      <point x="2437" y="967" type="line" smooth="yes" name="hr09"/>
      <point x="2391" y="967"/>
      <point x="2350" y="928"/>
      <point x="2350" y="879" type="curve" smooth="yes"/>
    </contour>
    <contour>
      <point x="2491" y="810" type="line" name="hr10"/>
      <point x="2491" y="857" type="line"/>
      <point x="2545" y="857" type="line"/>
      <point x="2545" y="810" type="line"/>
    </contour>
    <contour>
      <point x="2167" y="318" type="line" smooth="yes"/>
      <point x="2167" y="270"/>
      <point x="2206" y="231"/>
      <point x="2253" y="231" type="curve" smooth="yes"/>
      <point x="2597" y="231" type="line" smooth="yes"/>
      <point x="2645" y="231"/>
      <point x="2685" y="270"/>
      <point x="2685" y="318" type="curve" smooth="yes"/>
      <point x="2685" y="410" type="line" smooth="yes"/>
      <point x="2685" y="457"/>
      <point x="2645" y="497"/>
      <point x="2597" y="497" type="curve" smooth="yes"/>
      <point x="2253" y="497" type="line" smooth="yes"/>
      <point x="2206" y="497"/>
      <point x="2167" y="457"/>
      <point x="2167" y="410" type="curve" smooth="yes"/>
    </contour>
    <contour>
      <point x="1607" y="318" type="line" smooth="yes"/>
      <point x="1607" y="270"/>
      <point x="1647" y="231"/>
      <point x="1694" y="231" type="curve" smooth="yes"/>
      <point x="2080" y="232" type="line" smooth="yes"/>
      <point x="2128" y="232"/>
      <point x="2167" y="271"/>
      <point x="2167" y="319" type="curve" smooth="yes"/>
      <point x="2167" y="340" type="line"/>
      <point x="1747" y="340" type="line"/>
      <point x="1747" y="387" type="line"/>
      <point x="2119" y="387" type="line"/>
      <point x="2119" y="409" type="line" smooth="yes"/>
      <point x="2119" y="457"/>
      <point x="2081" y="496"/>
      <point x="2032" y="496" type="curve" smooth="yes"/>
      <point x="1694" y="496" type="line" smooth="yes"/>
      <point x="1647" y="496"/>
      <point x="1607" y="457"/>
      <point x="1607" y="409" type="curve" smooth="yes"/>
    </contour>
    <contour>
      <point x="2307" y="340" type="line"/>
      <point x="2307" y="387" type="line"/>
      <point x="2545" y="387" type="line"/>
      <point x="2545" y="340" type="line"/>
    </contour>
  </outline>
</glyph>
<glyph name="ring.cap" format="1">
  <advance width="877"/>
  <outline>
    <contour>
      <point x="438" y="1504" type="curve" smooth="yes" name="hr00"/>
      <point x="598" y="1504"/>
      <point x="727" y="1633"/>
      <point x="727" y="1793" type="curve" smooth="yes"/>
      <point x="727" y="1951"/>
      <point x="598" y="2081"/>
      <point x="438" y="2081" type="curve" smooth="yes"/>
      <point x="279" y="2081"/>
      <point x="150" y="1951"/>
      <point x="150" y="1793" type="curve" smooth="yes"/>
      <point x="150" y="1633"/>
      <point x="279" y="1504"/>
    </contour>
    <contour>
      <point x="438" y="1658" type="curve" smooth="yes"/>
      <point x="364" y="1658"/>
      <point x="305" y="1718"/>
      <point x="305" y="1793" type="curve" smooth="yes"/>
      <point x="305" y="1865"/>
      <point x="364" y="1929"/>
      <point x="438" y="1929" type="curve" smooth="yes"/>
      <point x="512" y="1929"/>
      <point x="572" y="1865"/>
      <point x="572" y="1793" type="curve" smooth="yes"/>
      <point x="572" y="1718"/>
      <point x="512" y="1658"/>
    </contour>
    <contour>
      <point x="439" y="1785" type="move" name="_top"/>
    </contour>
  </outline>
</glyph>
<glyph name="uni0300.cap" format="1">
  <advance width="0"/>
  <outline>
    <contour>
      <point x="247" y="1766" type="line" name="hr00"/>
      <point x="-66" y="2033" type="line"/>
      <point x="-94" y="2053"/>
      <point x="-122" y="2062"/>
      <point x="-149" y="2062" type="curve" smooth="yes"/>
      <point x="-195" y="2062"/>
      <point x="-236" y="2035"/>
      <point x="-259" y="1985" type="curve" smooth="yes"/>
      <point x="-267" y="1967"/>
      <point x="-271" y="1949"/>
      <point x="-271" y="1932" type="curve" smooth="yes"/>
      <point x="-271" y="1868"/>
      <point x="-222" y="1811"/>
      <point x="-159" y="1794" type="curve"/>
      <point x="192" y="1672" type="line"/>
    </contour>
    <contour>
      <point x="120" y="1785" type="move" name="_top"/>
    </contour>
  </outline>
</glyph>
<glyph name="uni0301.cap" format="1">
  <advance width="0"/>
  <outline>
    <contour>
      <point x="-192" y="1672" type="line" name="hr00"/>
      <point x="159" y="1794" type="line"/>
      <point x="222" y="1811"/>
      <point x="271" y="1868"/>
      <point x="271" y="1932" type="curve" smooth="yes"/>
      <point x="271" y="1949"/>
      <point x="267" y="1967"/>
      <point x="259" y="1985" type="curve" smooth="yes"/>
      <point x="236" y="2035"/>
      <point x="195" y="2062"/>
      <point x="149" y="2062" type="curve" smooth="yes"/>
      <point x="122" y="2062"/>
      <point x="94" y="2053"/>
      <point x="66" y="2033" type="curve"/>
      <point x="-247" y="1766" type="line"/>
    </contour>
    <contour>
      <point x="-95" y="1785" type="move" name="_top"/>
    </contour>
  </outline>
</glyph>
<glyph name="uni0304.cap" format="1">
  <advance width="0"/>
  <outline>
    <contour>
      <point x="-451" y="1715" type="curve" name="hr00"/>
      <point x="277" y="1715" type="line"/>
      <point x="366" y="1715"/>
      <point x="442" y="1820"/>
      <point x="451" y="1914" type="curve"/>
      <point x="-276" y="1914" type="line"/>
      <point x="-365" y="1914"/>
      <point x="-441" y="1808"/>
    </contour>
    <contour>
      <point x="0" y="1785" type="move" name="_top"/>
    </contour>
  </outline>
</glyph>
<glyph name="uni030A.cap" format="1">
  <advance width="0"/>
  <outline>
    <contour>
      <point x="0" y="1514" type="curve" smooth="yes" name="hr00"/>
      <point x="160" y="1514"/>
      <point x="289" y="1643"/>
      <point x="289" y="1803" type="curve" smooth="yes"/>
      <point x="289" y="1961"/>
      <point x="160" y="2091"/>
      <point x="0" y="2091" type="curve" smooth="yes"/>
      <point x="-159" y="2091"/>
      <point x="-288" y="1961"/>
      <point x="-288" y="1803" type="curve" smooth="yes"/>
      <point x="-288" y="1643"/>
      <point x="-159" y="1514"/>
    </contour>
    <contour>
      <point x="0" y="1668" type="curve" smooth="yes"/>
      <point x="-74" y="1668"/>
      <point x="-133" y="1728"/>
      <point x="-133" y="1803" type="curve" smooth="yes"/>
      <point x="-133" y="1875"/>
      <point x="-74" y="1939"/>
      <point x="0" y="1939" type="curve" smooth="yes"/>
      <point x="74" y="1939"/>
      <point x="134" y="1875"/>
      <point x="134" y="1803" type="curve" smooth="yes"/>
      <point x="134" y="1728"/>
      <point x="74" y="1668"/>
    </contour>
    <contour>
      <point x="0" y="1785" type="move" name="_top"/>
    </contour>
  </outline>
</glyph>
<glyph name="uni030F.cap" format="1">
  <advance width="0"/>
  <outline>
    <contour>
      <point x="345" y="1586" type="line" name="hr00"/>
      <point x="432" y="1701" type="line"/>
      <point x="200" y="1959" type="line" smooth="yes"/>
      <point x="167" y="1995"/>
      <point x="125" y="2014"/>
      <point x="84" y="2014" type="curve" smooth="yes"/>
      <point x="11" y="2014"/>
      <point x="-52" y="1949"/>
      <point x="-52" y="1874" type="curve" smooth="yes"/>
      <point x="-52" y="1812"/>
      <point x="-12" y="1751"/>
      <point x="49" y="1721" type="curve"/>
    </contour>
    <contour>
      <point x="-155" y="1586" type="line"/>
      <point x="-68" y="1701" type="line"/>
      <point x="-300" y="1959" type="line" smooth="yes"/>
      <point x="-333" y="1995"/>
      <point x="-375" y="2014"/>
      <point x="-416" y="2014" type="curve" smooth="yes"/>
      <point x="-489" y="2014"/>
      <point x="-552" y="1949"/>
      <point x="-552" y="1874" type="curve" smooth="yes"/>
      <point x="-552" y="1812"/>
      <point x="-512" y="1751"/>
      <point x="-451" y="1721" type="curve"/>
    </contour>
    <contour>
      <point x="-19" y="1785" type="move" name="_top"/>
    </contour>
  </outline>
</glyph>
